<svg xmlns="http://www.w3.org/2000/svg" xmlns:xlink="http://www.w3.org/1999/xlink" width="1920" zoomAndPan="magnify" viewBox="0 0 1440 809.999993" height="1080" preserveAspectRatio="xMidYMid meet" version="1.0"><defs><g/><clipPath id="79a89b70c6"><path d="M 0.910156 0.777344 L 1347.535156 0.777344 L 1347.535156 409.230469 L 0.910156 409.230469 Z M 0.910156 0.777344 " clip-rule="nonzero"/></clipPath><clipPath id="b131308c05"><path d="M 1347.089844 75.777344 L 1347.089844 334.230469 C 1347.089844 354.121094 1339.1875 373.199219 1325.121094 387.261719 C 1311.058594 401.328125 1291.980469 409.230469 1272.089844 409.230469 L 75.910156 409.230469 C 56.019531 409.230469 36.941406 401.328125 22.878906 387.261719 C 8.8125 373.199219 0.910156 354.121094 0.910156 334.230469 L 0.910156 75.777344 C 0.910156 55.882812 8.8125 36.808594 22.878906 22.742188 C 36.941406 8.675781 56.019531 0.777344 75.910156 0.777344 L 1272.089844 0.777344 C 1291.980469 0.777344 1311.058594 8.675781 1325.121094 22.742188 C 1339.1875 36.808594 1347.089844 55.882812 1347.089844 75.777344 Z M 1347.089844 75.777344 " clip-rule="nonzero"/></clipPath><clipPath id="b230952619"><path d="M 0.910156 0.777344 L 1347.199219 0.777344 L 1347.199219 409.230469 L 0.910156 409.230469 Z M 0.910156 0.777344 " clip-rule="nonzero"/></clipPath><clipPath id="30df1e1390"><path d="M 1347.089844 75.777344 L 1347.089844 334.230469 C 1347.089844 354.121094 1339.1875 373.199219 1325.121094 387.261719 C 1311.058594 401.328125 1291.980469 409.230469 1272.089844 409.230469 L 75.910156 409.230469 C 56.019531 409.230469 36.941406 401.328125 22.878906 387.261719 C 8.8125 373.199219 0.910156 354.121094 0.910156 334.230469 L 0.910156 75.777344 C 0.910156 55.882812 8.8125 36.808594 22.878906 22.742188 C 36.941406 8.675781 56.019531 0.777344 75.910156 0.777344 L 1272.089844 0.777344 C 1291.980469 0.777344 1311.058594 8.675781 1325.121094 22.742188 C 1339.1875 36.808594 1347.089844 55.882812 1347.089844 75.777344 Z M 1347.089844 75.777344 " clip-rule="nonzero"/></clipPath><clipPath id="af0a71b543"><rect x="0" width="1348" y="0" height="410"/></clipPath><clipPath id="0ecbea0d86"><rect x="0" width="1110" y="0" height="296"/></clipPath><clipPath id="326dcf63bb"><rect x="0" width="1348" y="0" height="410"/></clipPath></defs><rect x="-144" width="1728" fill="#ffffff" y="-80.999999" height="971.999992" fill-opacity="1"/><rect x="-144" width="1728" fill="#ffffff" y="-80.999999" height="971.999992" fill-opacity="1"/><g transform="matrix(1, 0, 0, 1, 46, 200)"><g clip-path="url(#326dcf63bb)"><g clip-path="url(#79a89b70c6)"><g clip-path="url(#b131308c05)"><g transform="matrix(1, 0, 0, 1, -0.000000000000007105, 0.000000000000028422)"><g clip-path="url(#af0a71b543)"><g clip-path="url(#b230952619)"><g clip-path="url(#30df1e1390)"><path fill="#39c6d0" d="M 0.910156 0.777344 L 1347.535156 0.777344 L 1347.535156 409.230469 L 0.910156 409.230469 Z M 0.910156 0.777344 " fill-opacity="1" fill-rule="nonzero"/></g></g></g></g></g></g><g transform="matrix(1, 0, 0, 1, 119, 57)"><g clip-path="url(#0ecbea0d86)"><g fill="#ffffff" fill-opacity="1"><g transform="translate(1.596939, 112.588048)"><g><path d="M 4.351562 -58.78125 C 4.351562 -63.5625 5.582031 -67.777344 8.039062 -71.417969 C 10.496094 -75.058594 13.910156 -77.910156 18.273438 -79.972656 C 22.636719 -82.03125 27.652344 -83.0625 33.328125 -83.0625 C 38.855469 -83.0625 43.648438 -82.09375 47.707031 -80.152344 C 51.765625 -78.214844 54.925781 -75.460938 57.191406 -71.890625 C 59.457031 -68.320312 60.667969 -64.078125 60.824219 -59.160156 L 46.574219 -59.160156 C 46.417969 -62.664062 45.152344 -65.402344 42.773438 -67.378906 C 40.398438 -69.355469 37.199219 -70.34375 33.171875 -70.34375 C 28.792969 -70.34375 25.269531 -69.347656 22.605469 -67.363281 C 19.941406 -65.375 18.613281 -62.671875 18.613281 -59.25 C 18.613281 -56.34375 19.421875 -54.046875 21.039062 -52.359375 C 22.65625 -50.675781 25.160156 -49.445312 28.554688 -48.671875 L 41.441406 -45.804688 C 48.382812 -44.316406 53.570312 -41.757812 57.007812 -38.132812 C 60.441406 -34.507812 62.160156 -29.644531 62.160156 -23.542969 C 62.160156 -18.53125 60.925781 -14.136719 58.457031 -10.371094 C 55.988281 -6.601562 52.515625 -3.695312 48.035156 -1.652344 C 43.558594 0.394531 38.3125 1.417969 32.304688 1.417969 C 26.558594 1.417969 21.519531 0.441406 17.175781 -1.507812 C 12.835938 -3.457031 9.460938 -6.222656 7.046875 -9.808594 C 4.632812 -13.394531 3.359375 -17.597656 3.226562 -22.417969 L 17.507812 -22.417969 C 17.574219 -18.972656 18.925781 -16.265625 21.5625 -14.292969 C 24.199219 -12.320312 27.804688 -11.335938 32.382812 -11.335938 C 37.140625 -11.335938 40.917969 -12.320312 43.710938 -14.292969 C 46.503906 -16.265625 47.902344 -18.921875 47.902344 -22.261719 C 47.902344 -25.058594 47.152344 -27.28125 45.652344 -28.9375 C 44.15625 -30.59375 41.738281 -31.78125 38.40625 -32.503906 L 25.464844 -35.339844 C 18.523438 -36.824219 13.269531 -39.535156 9.703125 -43.464844 C 6.136719 -47.398438 4.351562 -52.503906 4.351562 -58.78125 Z M 4.351562 -58.78125 "/></g></g></g><g fill="#ffffff" fill-opacity="1"><g transform="translate(67.648011, 112.588048)"><g><path d="M 1.527344 -55.121094 L 36.429688 -55.121094 L 36.429688 -43.785156 L 1.527344 -43.785156 Z M 25.765625 0 L 12.195312 0 L 12.195312 -72.316406 L 25.765625 -72.316406 Z M 25.765625 0 "/></g></g></g><g fill="#ffffff" fill-opacity="1"><g transform="translate(105.248015, 112.588048)"><g><path d="M 23.421875 1.417969 C 17.589844 1.417969 12.988281 -0.148438 9.617188 -3.285156 C 6.25 -6.421875 4.5625 -10.570312 4.5625 -15.734375 C 4.5625 -20.796875 6.335938 -24.84375 9.878906 -27.871094 C 13.425781 -30.902344 18.476562 -32.675781 25.039062 -33.195312 L 41.496094 -34.488281 L 41.496094 -35.714844 C 41.496094 -38.222656 41.027344 -40.246094 40.082031 -41.789062 C 39.136719 -43.328125 37.824219 -44.453125 36.148438 -45.164062 C 34.46875 -45.871094 32.476562 -46.226562 30.171875 -46.226562 C 26.125 -46.226562 23.019531 -45.429688 20.855469 -43.835938 C 18.6875 -42.238281 17.605469 -39.964844 17.605469 -37.011719 L 6.070312 -37.011719 C 6.070312 -41.027344 7.085938 -44.515625 9.121094 -47.472656 C 11.15625 -50.429688 14.046875 -52.71875 17.789062 -54.339844 C 21.535156 -55.960938 25.882812 -56.773438 30.828125 -56.773438 C 35.792969 -56.773438 40.050781 -55.898438 43.605469 -54.15625 C 47.160156 -52.414062 49.90625 -49.808594 51.84375 -46.34375 C 53.785156 -42.882812 54.753906 -38.585938 54.753906 -33.453125 L 54.753906 0 L 42.894531 0 L 41.808594 -8.167969 C 40.625 -5.304688 38.339844 -2.992188 34.953125 -1.226562 C 31.566406 0.535156 27.722656 1.417969 23.421875 1.417969 Z M 27.839844 -8.859375 C 32.027344 -8.859375 35.363281 -10.042969 37.847656 -12.414062 C 40.332031 -14.78125 41.574219 -18.066406 41.574219 -22.269531 L 41.574219 -25.25 L 30.09375 -24.269531 C 25.859375 -23.925781 22.847656 -23.074219 21.054688 -21.707031 C 19.261719 -20.34375 18.367188 -18.546875 18.367188 -16.3125 C 18.367188 -13.8125 19.1875 -11.945312 20.832031 -10.710938 C 22.476562 -9.476562 24.8125 -8.859375 27.839844 -8.859375 Z M 27.839844 -8.859375 "/></g></g></g><g fill="#ffffff" fill-opacity="1"><g transform="translate(164.88352, 112.588048)"><g><path d="M 15.21875 -55.121094 L 33.128906 -4.273438 L 25.765625 9.730469 L 0.726562 -55.121094 Z M 2.207031 25.542969 L 2.207031 14.226562 L 10.355469 14.226562 C 12.15625 14.226562 13.730469 14.023438 15.085938 13.617188 C 16.441406 13.210938 17.640625 12.460938 18.691406 11.371094 C 19.738281 10.277344 20.65625 8.648438 21.445312 6.480469 L 44.265625 -55.121094 L 58.335938 -55.121094 L 31.363281 12.230469 C 29.328125 17.347656 26.78125 21.0625 23.726562 23.371094 C 20.671875 25.679688 16.882812 26.835938 12.351562 26.835938 C 10.46875 26.835938 8.691406 26.726562 7.019531 26.511719 C 5.34375 26.296875 3.742188 25.972656 2.207031 25.542969 Z M 2.207031 25.542969 "/></g></g></g><g fill="#ffffff" fill-opacity="1"><g transform="translate(223.905509, 112.588048)"><g/></g></g><g fill="#ffffff" fill-opacity="1"><g transform="translate(253.91857, 112.588048)"><g><path d="M 44.453125 -55.121094 L 58.023438 -55.121094 L 58.023438 0 L 45.460938 0 L 44.375 -7.355469 C 42.753906 -4.734375 40.308594 -2.617188 37.035156 -1.003906 C 33.761719 0.609375 30.285156 1.417969 26.601562 1.417969 C 20.253906 1.417969 15.304688 -0.578125 11.742188 -4.566406 C 8.183594 -8.558594 6.40625 -13.933594 6.40625 -20.6875 L 6.40625 -55.15625 L 20.007812 -55.15625 L 20.007812 -25.464844 C 20.007812 -20.234375 21.015625 -16.464844 23.03125 -14.152344 C 25.046875 -11.84375 27.949219 -10.6875 31.734375 -10.6875 C 36.035156 -10.6875 39.230469 -11.96875 41.320312 -14.527344 C 43.410156 -17.085938 44.453125 -20.992188 44.453125 -26.246094 Z M 44.453125 -55.121094 "/></g></g></g><g fill="#ffffff" fill-opacity="1"><g transform="translate(318.965475, 112.588048)"><g><path d="M 7.074219 25.542969 L 7.074219 -55.121094 L 19.636719 -55.121094 L 20.496094 -46.742188 C 22.195312 -49.949219 24.738281 -52.421875 28.132812 -54.160156 C 31.53125 -55.902344 35.300781 -56.773438 39.445312 -56.773438 C 44.671875 -56.773438 49.214844 -55.589844 53.066406 -53.230469 C 56.921875 -50.867188 59.921875 -47.554688 62.0625 -43.285156 C 64.203125 -39.019531 65.277344 -33.988281 65.277344 -28.183594 C 65.277344 -22.488281 64.269531 -17.402344 62.257812 -12.925781 C 60.246094 -8.453125 57.324219 -4.929688 53.5 -2.359375 C 49.671875 0.210938 45.011719 1.496094 39.523438 1.496094 C 35.386719 1.496094 31.636719 0.703125 28.273438 -0.878906 C 24.914062 -2.464844 22.367188 -4.632812 20.644531 -7.386719 L 20.644531 25.542969 Z M 20.753906 -27.5625 C 20.753906 -24.292969 21.390625 -21.390625 22.667969 -18.84375 C 23.941406 -16.300781 25.75 -14.320312 28.082031 -12.898438 C 30.421875 -11.476562 33.160156 -10.769531 36.308594 -10.769531 C 39.507812 -10.769531 42.242188 -11.492188 44.515625 -12.9375 C 46.789062 -14.386719 48.535156 -16.367188 49.761719 -18.886719 C 50.984375 -21.402344 51.597656 -24.292969 51.597656 -27.5625 C 51.597656 -30.847656 50.984375 -33.75 49.761719 -36.269531 C 48.535156 -38.789062 46.789062 -40.765625 44.515625 -42.199219 C 42.242188 -43.636719 39.507812 -44.355469 36.308594 -44.355469 C 33.160156 -44.355469 30.421875 -43.648438 28.082031 -42.238281 C 25.75 -40.828125 23.941406 -38.867188 22.667969 -36.347656 C 21.390625 -33.832031 20.753906 -30.902344 20.753906 -27.5625 Z M 20.753906 -27.5625 "/></g></g></g><g fill="#ffffff" fill-opacity="1"><g transform="translate(388.028996, 112.588048)"><g/></g></g><g fill="#ffffff" fill-opacity="1"><g transform="translate(418.04204, 112.588048)"><g><path d="M 1.527344 -55.121094 L 36.429688 -55.121094 L 36.429688 -43.785156 L 1.527344 -43.785156 Z M 25.765625 0 L 12.195312 0 L 12.195312 -72.316406 L 25.765625 -72.316406 Z M 25.765625 0 "/></g></g></g><g fill="#ffffff" fill-opacity="1"><g transform="translate(455.418883, 112.588048)"><g><path d="M 3.761719 -27.640625 C 3.761719 -33.382812 5.03125 -38.433594 7.570312 -42.792969 C 10.109375 -47.148438 13.609375 -50.558594 18.070312 -53.011719 C 22.53125 -55.464844 27.601562 -56.695312 33.285156 -56.695312 C 38.992188 -56.695312 44.054688 -55.464844 48.476562 -53.011719 C 52.898438 -50.558594 56.378906 -47.148438 58.921875 -42.792969 C 61.460938 -38.433594 62.730469 -33.382812 62.730469 -27.640625 C 62.730469 -21.917969 61.460938 -16.886719 58.921875 -12.539062 C 56.378906 -8.195312 52.898438 -4.796875 48.476562 -2.34375 C 44.054688 0.113281 38.992188 1.339844 33.285156 1.339844 C 27.601562 1.339844 22.53125 0.113281 18.070312 -2.34375 C 13.609375 -4.796875 10.109375 -8.195312 7.570312 -12.539062 C 5.03125 -16.886719 3.761719 -21.917969 3.761719 -27.640625 Z M 17.441406 -27.71875 C 17.441406 -24.378906 18.117188 -21.433594 19.472656 -18.890625 C 20.824219 -16.347656 22.683594 -14.367188 25.050781 -12.960938 C 27.414062 -11.550781 30.160156 -10.847656 33.285156 -10.847656 C 36.410156 -10.847656 39.152344 -11.550781 41.519531 -12.960938 C 43.886719 -14.367188 45.730469 -16.347656 47.058594 -18.890625 C 48.386719 -21.433594 49.050781 -24.378906 49.050781 -27.71875 C 49.050781 -31.078125 48.386719 -34.011719 47.058594 -36.519531 C 45.730469 -39.027344 43.886719 -40.984375 41.519531 -42.394531 C 39.152344 -43.804688 36.410156 -44.511719 33.285156 -44.511719 C 30.160156 -44.511719 27.414062 -43.804688 25.050781 -42.394531 C 22.683594 -40.984375 20.824219 -39.027344 19.472656 -36.519531 C 18.117188 -34.011719 17.441406 -31.078125 17.441406 -27.71875 Z M 17.441406 -27.71875 "/></g></g></g><g fill="#ffffff" fill-opacity="1"><g transform="translate(521.916261, 112.588048)"><g/></g></g><g fill="#ffffff" fill-opacity="1"><g transform="translate(551.929304, 112.588048)"><g><path d="M 29.671875 1.417969 C 24.359375 1.417969 19.769531 0.210938 15.90625 -2.203125 C 12.039062 -4.617188 9.050781 -7.984375 6.933594 -12.300781 C 4.820312 -16.621094 3.761719 -21.628906 3.761719 -27.328125 C 3.761719 -33.078125 4.832031 -38.164062 6.972656 -42.585938 C 9.117188 -47.007812 12.183594 -50.476562 16.179688 -52.996094 C 20.175781 -55.511719 24.929688 -56.773438 30.453125 -56.773438 C 34.328125 -56.773438 37.855469 -56.011719 41.035156 -54.492188 C 44.214844 -52.96875 46.667969 -50.820312 48.394531 -48.046875 L 48.394531 -83.0625 L 61.960938 -83.0625 L 61.960938 0 L 49.398438 0 L 48.539062 -8.613281 C 46.894531 -5.480469 44.386719 -3.027344 41.015625 -1.25 C 37.648438 0.527344 33.863281 1.417969 29.671875 1.417969 Z M 32.726562 -11 C 35.894531 -11 38.644531 -11.707031 40.96875 -13.117188 C 43.292969 -14.527344 45.09375 -16.503906 46.367188 -19.046875 C 47.644531 -21.589844 48.28125 -24.507812 48.28125 -27.792969 C 48.28125 -31.136719 47.644531 -34.058594 46.367188 -36.566406 C 45.09375 -39.074219 43.292969 -41.035156 40.96875 -42.457031 C 38.644531 -43.878906 35.894531 -44.585938 32.726562 -44.585938 C 29.582031 -44.585938 26.859375 -43.863281 24.558594 -42.417969 C 22.261719 -40.972656 20.5 -38.996094 19.277344 -36.488281 C 18.050781 -33.980469 17.441406 -31.082031 17.441406 -27.792969 C 17.441406 -24.507812 18.050781 -21.605469 19.277344 -19.085938 C 20.5 -16.566406 22.261719 -14.589844 24.558594 -13.15625 C 26.859375 -11.71875 29.582031 -11 32.726562 -11 Z M 32.726562 -11 "/></g></g></g><g fill="#ffffff" fill-opacity="1"><g transform="translate(620.99279, 112.588048)"><g><path d="M 23.421875 1.417969 C 17.589844 1.417969 12.988281 -0.148438 9.617188 -3.285156 C 6.25 -6.421875 4.5625 -10.570312 4.5625 -15.734375 C 4.5625 -20.796875 6.335938 -24.84375 9.878906 -27.871094 C 13.425781 -30.902344 18.476562 -32.675781 25.039062 -33.195312 L 41.496094 -34.488281 L 41.496094 -35.714844 C 41.496094 -38.222656 41.027344 -40.246094 40.082031 -41.789062 C 39.136719 -43.328125 37.824219 -44.453125 36.148438 -45.164062 C 34.46875 -45.871094 32.476562 -46.226562 30.171875 -46.226562 C 26.125 -46.226562 23.019531 -45.429688 20.855469 -43.835938 C 18.6875 -42.238281 17.605469 -39.964844 17.605469 -37.011719 L 6.070312 -37.011719 C 6.070312 -41.027344 7.085938 -44.515625 9.121094 -47.472656 C 11.15625 -50.429688 14.046875 -52.71875 17.789062 -54.339844 C 21.535156 -55.960938 25.882812 -56.773438 30.828125 -56.773438 C 35.792969 -56.773438 40.050781 -55.898438 43.605469 -54.15625 C 47.160156 -52.414062 49.90625 -49.808594 51.84375 -46.34375 C 53.785156 -42.882812 54.753906 -38.585938 54.753906 -33.453125 L 54.753906 0 L 42.894531 0 L 41.808594 -8.167969 C 40.625 -5.304688 38.339844 -2.992188 34.953125 -1.226562 C 31.566406 0.535156 27.722656 1.417969 23.421875 1.417969 Z M 27.839844 -8.859375 C 32.027344 -8.859375 35.363281 -10.042969 37.847656 -12.414062 C 40.332031 -14.78125 41.574219 -18.066406 41.574219 -22.269531 L 41.574219 -25.25 L 30.09375 -24.269531 C 25.859375 -23.925781 22.847656 -23.074219 21.054688 -21.707031 C 19.261719 -20.34375 18.367188 -18.546875 18.367188 -16.3125 C 18.367188 -13.8125 19.1875 -11.945312 20.832031 -10.710938 C 22.476562 -9.476562 24.8125 -8.859375 27.839844 -8.859375 Z M 27.839844 -8.859375 "/></g></g></g><g fill="#ffffff" fill-opacity="1"><g transform="translate(681.409388, 112.588048)"><g><path d="M 1.527344 -55.121094 L 36.429688 -55.121094 L 36.429688 -43.785156 L 1.527344 -43.785156 Z M 25.765625 0 L 12.195312 0 L 12.195312 -72.316406 L 25.765625 -72.316406 Z M 25.765625 0 "/></g></g></g><g fill="#ffffff" fill-opacity="1"><g transform="translate(718.786231, 112.588048)"><g><path d="M 31.722656 1.417969 C 26.277344 1.417969 21.449219 0.179688 17.246094 -2.292969 C 13.039062 -4.765625 9.738281 -8.183594 7.347656 -12.539062 C 4.957031 -16.902344 3.761719 -21.921875 3.761719 -27.605469 C 3.761719 -33.339844 4.925781 -38.394531 7.253906 -42.765625 C 9.582031 -47.132812 12.820312 -50.5625 16.964844 -53.046875 C 21.113281 -55.53125 25.886719 -56.773438 31.289062 -56.773438 C 36.808594 -56.773438 41.582031 -55.613281 45.609375 -53.296875 C 49.636719 -50.980469 52.753906 -47.71875 54.960938 -43.515625 C 57.164062 -39.3125 58.269531 -34.339844 58.269531 -28.597656 L 58.269531 -24.480469 L 10.957031 -24.324219 L 11.179688 -33.019531 L 44.746094 -33.019531 C 44.746094 -36.839844 43.539062 -39.894531 41.128906 -42.179688 C 38.71875 -44.460938 35.464844 -45.605469 31.363281 -45.605469 C 28.152344 -45.605469 25.457031 -44.933594 23.273438 -43.59375 C 21.097656 -42.257812 19.441406 -40.257812 18.316406 -37.601562 C 17.1875 -34.945312 16.625 -31.675781 16.625 -27.785156 C 16.625 -21.839844 17.914062 -17.347656 20.492188 -14.308594 C 23.070312 -11.273438 26.890625 -9.753906 31.957031 -9.753906 C 35.675781 -9.753906 38.738281 -10.449219 41.140625 -11.84375 C 43.542969 -13.238281 45.109375 -15.230469 45.835938 -17.820312 L 58.421875 -17.820312 C 57.277344 -11.847656 54.335938 -7.148438 49.59375 -3.71875 C 44.851562 -0.296875 38.894531 1.417969 31.722656 1.417969 Z M 31.722656 1.417969 "/></g></g></g><g fill="#ffffff" fill-opacity="1"><g transform="translate(780.932206, 112.588048)"><g/></g></g><g fill="#ffffff" fill-opacity="1"><g transform="translate(810.945319, 112.588048)"><g><path d="M 7.074219 0 L 7.074219 -55.121094 L 20.644531 -55.121094 L 20.644531 0 Z M 13.78125 -66.136719 C 11.472656 -66.136719 9.519531 -66.9375 7.910156 -68.542969 C 6.304688 -70.152344 5.5 -72.097656 5.5 -74.378906 C 5.5 -76.6875 6.304688 -78.636719 7.910156 -80.226562 C 9.519531 -81.820312 11.472656 -82.617188 13.78125 -82.617188 C 16.035156 -82.617188 17.964844 -81.820312 19.570312 -80.226562 C 21.179688 -78.636719 21.980469 -76.6875 21.980469 -74.378906 C 21.980469 -72.097656 21.179688 -70.152344 19.570312 -68.542969 C 17.964844 -66.9375 16.035156 -66.136719 13.78125 -66.136719 Z M 13.78125 -66.136719 "/></g></g></g><g fill="#ffffff" fill-opacity="1"><g transform="translate(838.615363, 112.588048)"><g><path d="M 20.644531 0 L 7.074219 0 L 7.074219 -55.121094 L 19.636719 -55.121094 L 20.753906 -47.945312 C 22.488281 -50.726562 24.921875 -52.894531 28.054688 -54.445312 C 31.191406 -55.996094 34.636719 -56.773438 38.394531 -56.773438 C 45.304688 -56.773438 50.523438 -54.738281 54.050781 -50.675781 C 57.574219 -46.609375 59.339844 -41.019531 59.339844 -33.910156 L 59.339844 0 L 45.769531 0 L 45.769531 -30.71875 C 45.769531 -35.285156 44.714844 -38.714844 42.605469 -41 C 40.5 -43.289062 37.675781 -44.433594 34.144531 -44.433594 C 29.917969 -44.433594 26.613281 -43.097656 24.222656 -40.425781 C 21.835938 -37.757812 20.644531 -34.183594 20.644531 -29.703125 Z M 20.644531 0 "/></g></g></g><g fill="#ffffff" fill-opacity="1"><g transform="translate(904.331719, 112.588048)"><g/></g></g><g fill="#ffffff" fill-opacity="1"><g transform="translate(934.344763, 112.588048)"><g><path d="M 3.761719 -27.640625 C 3.761719 -33.382812 5.03125 -38.433594 7.570312 -42.792969 C 10.109375 -47.148438 13.609375 -50.558594 18.070312 -53.011719 C 22.53125 -55.464844 27.601562 -56.695312 33.285156 -56.695312 C 38.992188 -56.695312 44.054688 -55.464844 48.476562 -53.011719 C 52.898438 -50.558594 56.378906 -47.148438 58.921875 -42.792969 C 61.460938 -38.433594 62.730469 -33.382812 62.730469 -27.640625 C 62.730469 -21.917969 61.460938 -16.886719 58.921875 -12.539062 C 56.378906 -8.195312 52.898438 -4.796875 48.476562 -2.34375 C 44.054688 0.113281 38.992188 1.339844 33.285156 1.339844 C 27.601562 1.339844 22.53125 0.113281 18.070312 -2.34375 C 13.609375 -4.796875 10.109375 -8.195312 7.570312 -12.539062 C 5.03125 -16.886719 3.761719 -21.917969 3.761719 -27.640625 Z M 17.441406 -27.71875 C 17.441406 -24.378906 18.117188 -21.433594 19.472656 -18.890625 C 20.824219 -16.347656 22.683594 -14.367188 25.050781 -12.960938 C 27.414062 -11.550781 30.160156 -10.847656 33.285156 -10.847656 C 36.410156 -10.847656 39.152344 -11.550781 41.519531 -12.960938 C 43.886719 -14.367188 45.730469 -16.347656 47.058594 -18.890625 C 48.386719 -21.433594 49.050781 -24.378906 49.050781 -27.71875 C 49.050781 -31.078125 48.386719 -34.011719 47.058594 -36.519531 C 45.730469 -39.027344 43.886719 -40.984375 41.519531 -42.394531 C 39.152344 -43.804688 36.410156 -44.511719 33.285156 -44.511719 C 30.160156 -44.511719 27.414062 -43.804688 25.050781 -42.394531 C 22.683594 -40.984375 20.824219 -39.027344 19.472656 -36.519531 C 18.117188 -34.011719 17.441406 -31.078125 17.441406 -27.71875 Z M 17.441406 -27.71875 "/></g></g></g><g fill="#ffffff" fill-opacity="1"><g transform="translate(999.503135, 112.588048)"><g><path d="M 44.453125 -55.121094 L 58.023438 -55.121094 L 58.023438 0 L 45.460938 0 L 44.375 -7.355469 C 42.753906 -4.734375 40.308594 -2.617188 37.035156 -1.003906 C 33.761719 0.609375 30.285156 1.417969 26.601562 1.417969 C 20.253906 1.417969 15.304688 -0.578125 11.742188 -4.566406 C 8.183594 -8.558594 6.40625 -13.933594 6.40625 -20.6875 L 6.40625 -55.15625 L 20.007812 -55.15625 L 20.007812 -25.464844 C 20.007812 -20.234375 21.015625 -16.464844 23.03125 -14.152344 C 25.046875 -11.84375 27.949219 -10.6875 31.734375 -10.6875 C 36.035156 -10.6875 39.230469 -11.96875 41.320312 -14.527344 C 43.410156 -17.085938 44.453125 -20.992188 44.453125 -26.246094 Z M 44.453125 -55.121094 "/></g></g></g><g fill="#ffffff" fill-opacity="1"><g transform="translate(1064.550023, 112.588048)"><g><path d="M 41.609375 -55.355469 L 41.609375 -42.691406 L 36.578125 -42.691406 C 31.644531 -42.691406 27.757812 -41.371094 24.910156 -38.734375 C 22.066406 -36.097656 20.644531 -32.09375 20.644531 -26.722656 L 20.644531 0 L 7.074219 0 L 7.074219 -55.042969 L 19.839844 -55.042969 L 20.945312 -43.605469 L 19.683594 -43.605469 C 20.425781 -47.257812 22.164062 -50.25 24.894531 -52.578125 C 27.625 -54.90625 31.191406 -56.070312 35.59375 -56.070312 C 36.570312 -56.070312 37.539062 -56.019531 38.507812 -55.917969 C 39.472656 -55.816406 40.507812 -55.628906 41.609375 -55.355469 Z M 41.609375 -55.355469 "/></g></g></g><g fill="#ffffff" fill-opacity="1"><g transform="translate(171.124487, 267.943679)"><g><path d="M 38.339844 0 L 9.027344 0 L 9.027344 -81.566406 L 37.558594 -81.566406 C 45.644531 -81.566406 52.734375 -79.847656 58.824219 -76.40625 C 64.917969 -72.964844 69.683594 -68.171875 73.125 -62.023438 C 76.566406 -55.875 78.285156 -48.742188 78.285156 -40.625 C 78.285156 -32.636719 76.605469 -25.589844 73.242188 -19.480469 C 69.878906 -13.375 65.207031 -8.601562 59.21875 -5.160156 C 53.230469 -1.71875 46.269531 0 38.339844 0 Z M 23.289062 -74.984375 L 23.289062 -6.425781 L 16.535156 -13.1875 L 37.089844 -13.1875 C 42.519531 -13.1875 47.191406 -14.296875 51.097656 -16.507812 C 55.007812 -18.722656 58.015625 -21.886719 60.125 -26 C 62.234375 -30.113281 63.289062 -34.988281 63.289062 -40.625 C 63.289062 -46.390625 62.203125 -51.34375 60.027344 -55.484375 C 57.851562 -59.625 54.753906 -62.808594 50.742188 -65.035156 C 46.726562 -67.261719 41.917969 -68.378906 36.308594 -68.378906 L 16.535156 -68.378906 Z M 23.289062 -74.984375 "/></g></g></g><g fill="#ffffff" fill-opacity="1"><g transform="translate(253.688313, 267.943679)"><g><path d="M 7.074219 0 L 7.074219 -55.121094 L 20.644531 -55.121094 L 20.644531 0 Z M 13.78125 -66.136719 C 11.472656 -66.136719 9.519531 -66.9375 7.910156 -68.542969 C 6.304688 -70.152344 5.5 -72.097656 5.5 -74.378906 C 5.5 -76.6875 6.304688 -78.636719 7.910156 -80.226562 C 9.519531 -81.820312 11.472656 -82.617188 13.78125 -82.617188 C 16.035156 -82.617188 17.964844 -81.820312 19.570312 -80.226562 C 21.179688 -78.636719 21.980469 -76.6875 21.980469 -74.378906 C 21.980469 -72.097656 21.179688 -70.152344 19.570312 -68.542969 C 17.964844 -66.9375 16.035156 -66.136719 13.78125 -66.136719 Z M 13.78125 -66.136719 "/></g></g></g><g fill="#ffffff" fill-opacity="1"><g transform="translate(281.358358, 267.943679)"><g><path d="M 2.824219 -16.691406 L 15.734375 -16.691406 C 15.835938 -14.3125 16.746094 -12.429688 18.460938 -11.046875 C 20.175781 -9.664062 22.558594 -8.972656 25.609375 -8.972656 C 28.84375 -8.972656 31.292969 -9.570312 32.960938 -10.761719 C 34.628906 -11.957031 35.460938 -13.539062 35.460938 -15.511719 C 35.460938 -16.863281 35.027344 -18.050781 34.160156 -19.066406 C 33.292969 -20.085938 31.605469 -20.886719 29.101562 -21.46875 L 19.203125 -23.734375 C 14.25 -24.871094 10.550781 -26.679688 8.113281 -29.160156 C 5.671875 -31.644531 4.453125 -35.09375 4.453125 -39.511719 C 4.453125 -43.109375 5.398438 -46.195312 7.285156 -48.765625 C 9.175781 -51.335938 11.761719 -53.3125 15.046875 -54.695312 C 18.332031 -56.082031 22.082031 -56.773438 26.300781 -56.773438 C 30.4375 -56.773438 34.0625 -56.035156 37.183594 -54.5625 C 40.304688 -53.089844 42.746094 -51.019531 44.503906 -48.347656 C 46.261719 -45.679688 47.15625 -42.523438 47.175781 -38.886719 L 34.265625 -38.886719 C 34.222656 -41.289062 33.457031 -43.179688 31.972656 -44.554688 C 30.488281 -45.929688 28.414062 -46.617188 25.753906 -46.617188 C 23.105469 -46.617188 21.039062 -46.03125 19.550781 -44.855469 C 18.0625 -43.679688 17.316406 -42.082031 17.316406 -40.058594 C 17.316406 -36.984375 19.683594 -34.890625 24.414062 -33.777344 L 34.355469 -31.511719 C 38.992188 -30.476562 42.476562 -28.792969 44.816406 -26.460938 C 47.15625 -24.128906 48.324219 -20.84375 48.324219 -16.601562 C 48.324219 -12.929688 47.351562 -9.730469 45.402344 -7.007812 C 43.453125 -4.285156 40.742188 -2.199219 37.269531 -0.753906 C 33.792969 0.695312 29.773438 1.417969 25.207031 1.417969 C 18.355469 1.417969 12.910156 -0.25 8.875 -3.582031 C 4.839844 -6.914062 2.824219 -11.285156 2.824219 -16.691406 Z M 2.824219 -16.691406 "/></g></g></g><g fill="#ffffff" fill-opacity="1"><g transform="translate(333.016529, 267.943679)"><g><path d="M 3.761719 -27.648438 C 3.761719 -33.355469 4.9375 -38.394531 7.292969 -42.765625 C 9.644531 -47.132812 12.890625 -50.5625 17.019531 -53.046875 C 21.152344 -55.53125 25.941406 -56.773438 31.386719 -56.773438 C 38.886719 -56.773438 45.039062 -54.820312 49.847656 -50.914062 C 54.660156 -47.007812 57.425781 -41.746094 58.144531 -35.125 L 44.464844 -35.125 C 43.714844 -38.289062 42.242188 -40.660156 40.046875 -42.246094 C 37.851562 -43.828125 35.121094 -44.621094 31.855469 -44.621094 C 29.007812 -44.621094 26.480469 -43.929688 24.28125 -42.539062 C 22.078125 -41.152344 20.375 -39.199219 19.175781 -36.683594 C 17.972656 -34.164062 17.375 -31.164062 17.375 -27.683594 C 17.375 -24.214844 17.945312 -21.21875 19.085938 -18.683594 C 20.226562 -16.152344 21.855469 -14.199219 23.972656 -12.828125 C 26.089844 -11.453125 28.597656 -10.769531 31.5 -10.769531 C 34.929688 -10.769531 37.777344 -11.585938 40.046875 -13.21875 C 42.316406 -14.851562 43.8125 -17.175781 44.53125 -20.195312 L 58.210938 -20.195312 C 57.660156 -15.910156 56.179688 -12.152344 53.765625 -8.921875 C 51.351562 -5.6875 48.234375 -3.15625 44.410156 -1.328125 C 40.585938 0.503906 36.28125 1.417969 31.5 1.417969 C 25.914062 1.417969 21.039062 0.207031 16.875 -2.214844 C 12.714844 -4.636719 9.488281 -8.019531 7.195312 -12.367188 C 4.90625 -16.714844 3.761719 -21.808594 3.761719 -27.648438 Z M 3.761719 -27.648438 "/></g></g></g><g fill="#ffffff" fill-opacity="1"><g transform="translate(394.381534, 267.943679)"><g><path d="M 3.761719 -27.640625 C 3.761719 -33.382812 5.03125 -38.433594 7.570312 -42.792969 C 10.109375 -47.148438 13.609375 -50.558594 18.070312 -53.011719 C 22.53125 -55.464844 27.601562 -56.695312 33.285156 -56.695312 C 38.992188 -56.695312 44.054688 -55.464844 48.476562 -53.011719 C 52.898438 -50.558594 56.378906 -47.148438 58.921875 -42.792969 C 61.460938 -38.433594 62.730469 -33.382812 62.730469 -27.640625 C 62.730469 -21.917969 61.460938 -16.886719 58.921875 -12.539062 C 56.378906 -8.195312 52.898438 -4.796875 48.476562 -2.34375 C 44.054688 0.113281 38.992188 1.339844 33.285156 1.339844 C 27.601562 1.339844 22.53125 0.113281 18.070312 -2.34375 C 13.609375 -4.796875 10.109375 -8.195312 7.570312 -12.539062 C 5.03125 -16.886719 3.761719 -21.917969 3.761719 -27.640625 Z M 17.441406 -27.71875 C 17.441406 -24.378906 18.117188 -21.433594 19.472656 -18.890625 C 20.824219 -16.347656 22.683594 -14.367188 25.050781 -12.960938 C 27.414062 -11.550781 30.160156 -10.847656 33.285156 -10.847656 C 36.410156 -10.847656 39.152344 -11.550781 41.519531 -12.960938 C 43.886719 -14.367188 45.730469 -16.347656 47.058594 -18.890625 C 48.386719 -21.433594 49.050781 -24.378906 49.050781 -27.71875 C 49.050781 -31.078125 48.386719 -34.011719 47.058594 -36.519531 C 45.730469 -39.027344 43.886719 -40.984375 41.519531 -42.394531 C 39.152344 -43.804688 36.410156 -44.511719 33.285156 -44.511719 C 30.160156 -44.511719 27.414062 -43.804688 25.050781 -42.394531 C 22.683594 -40.984375 20.824219 -39.027344 19.472656 -36.519531 C 18.117188 -34.011719 17.441406 -31.078125 17.441406 -27.71875 Z M 17.441406 -27.71875 "/></g></g></g><g fill="#ffffff" fill-opacity="1"><g transform="translate(460.878894, 267.943679)"><g><path d="M 41.609375 -55.355469 L 41.609375 -42.691406 L 36.578125 -42.691406 C 31.644531 -42.691406 27.757812 -41.371094 24.910156 -38.734375 C 22.066406 -36.097656 20.644531 -32.09375 20.644531 -26.722656 L 20.644531 0 L 7.074219 0 L 7.074219 -55.042969 L 19.839844 -55.042969 L 20.945312 -43.605469 L 19.683594 -43.605469 C 20.425781 -47.257812 22.164062 -50.25 24.894531 -52.578125 C 27.625 -54.90625 31.191406 -56.070312 35.59375 -56.070312 C 36.570312 -56.070312 37.539062 -56.019531 38.507812 -55.917969 C 39.472656 -55.816406 40.507812 -55.628906 41.609375 -55.355469 Z M 41.609375 -55.355469 "/></g></g></g><g fill="#ffffff" fill-opacity="1"><g transform="translate(502.885887, 267.943679)"><g><path d="M 29.671875 1.417969 C 24.359375 1.417969 19.769531 0.210938 15.90625 -2.203125 C 12.039062 -4.617188 9.050781 -7.984375 6.933594 -12.300781 C 4.820312 -16.621094 3.761719 -21.628906 3.761719 -27.328125 C 3.761719 -33.078125 4.832031 -38.164062 6.972656 -42.585938 C 9.117188 -47.007812 12.183594 -50.476562 16.179688 -52.996094 C 20.175781 -55.511719 24.929688 -56.773438 30.453125 -56.773438 C 34.328125 -56.773438 37.855469 -56.011719 41.035156 -54.492188 C 44.214844 -52.96875 46.667969 -50.820312 48.394531 -48.046875 L 48.394531 -83.0625 L 61.960938 -83.0625 L 61.960938 0 L 49.398438 0 L 48.539062 -8.613281 C 46.894531 -5.480469 44.386719 -3.027344 41.015625 -1.25 C 37.648438 0.527344 33.863281 1.417969 29.671875 1.417969 Z M 32.726562 -11 C 35.894531 -11 38.644531 -11.707031 40.96875 -13.117188 C 43.292969 -14.527344 45.09375 -16.503906 46.367188 -19.046875 C 47.644531 -21.589844 48.28125 -24.507812 48.28125 -27.792969 C 48.28125 -31.136719 47.644531 -34.058594 46.367188 -36.566406 C 45.09375 -39.074219 43.292969 -41.035156 40.96875 -42.457031 C 38.644531 -43.878906 35.894531 -44.585938 32.726562 -44.585938 C 29.582031 -44.585938 26.859375 -43.863281 24.558594 -42.417969 C 22.261719 -40.972656 20.5 -38.996094 19.277344 -36.488281 C 18.050781 -33.980469 17.441406 -31.082031 17.441406 -27.792969 C 17.441406 -24.507812 18.050781 -21.605469 19.277344 -19.085938 C 20.5 -16.566406 22.261719 -14.589844 24.558594 -13.15625 C 26.859375 -11.71875 29.582031 -11 32.726562 -11 Z M 32.726562 -11 "/></g></g></g><g fill="#ffffff" fill-opacity="1"><g transform="translate(571.949409, 267.943679)"><g/></g></g><g fill="#ffffff" fill-opacity="1"><g transform="translate(601.962452, 267.943679)"><g><path d="M 4.351562 -58.78125 C 4.351562 -63.5625 5.582031 -67.777344 8.039062 -71.417969 C 10.496094 -75.058594 13.910156 -77.910156 18.273438 -79.972656 C 22.636719 -82.03125 27.652344 -83.0625 33.328125 -83.0625 C 38.855469 -83.0625 43.648438 -82.09375 47.707031 -80.152344 C 51.765625 -78.214844 54.925781 -75.460938 57.191406 -71.890625 C 59.457031 -68.320312 60.667969 -64.078125 60.824219 -59.160156 L 46.574219 -59.160156 C 46.417969 -62.664062 45.152344 -65.402344 42.773438 -67.378906 C 40.398438 -69.355469 37.199219 -70.34375 33.171875 -70.34375 C 28.792969 -70.34375 25.269531 -69.347656 22.605469 -67.363281 C 19.941406 -65.375 18.613281 -62.671875 18.613281 -59.25 C 18.613281 -56.34375 19.421875 -54.046875 21.039062 -52.359375 C 22.65625 -50.675781 25.160156 -49.445312 28.554688 -48.671875 L 41.441406 -45.804688 C 48.382812 -44.316406 53.570312 -41.757812 57.007812 -38.132812 C 60.441406 -34.507812 62.160156 -29.644531 62.160156 -23.542969 C 62.160156 -18.53125 60.925781 -14.136719 58.457031 -10.371094 C 55.988281 -6.601562 52.515625 -3.695312 48.035156 -1.652344 C 43.558594 0.394531 38.3125 1.417969 32.304688 1.417969 C 26.558594 1.417969 21.519531 0.441406 17.175781 -1.507812 C 12.835938 -3.457031 9.460938 -6.222656 7.046875 -9.808594 C 4.632812 -13.394531 3.359375 -17.597656 3.226562 -22.417969 L 17.507812 -22.417969 C 17.574219 -18.972656 18.925781 -16.265625 21.5625 -14.292969 C 24.199219 -12.320312 27.804688 -11.335938 32.382812 -11.335938 C 37.140625 -11.335938 40.917969 -12.320312 43.710938 -14.292969 C 46.503906 -16.265625 47.902344 -18.921875 47.902344 -22.261719 C 47.902344 -25.058594 47.152344 -27.28125 45.652344 -28.9375 C 44.15625 -30.59375 41.738281 -31.78125 38.40625 -32.503906 L 25.464844 -35.339844 C 18.523438 -36.824219 13.269531 -39.535156 9.703125 -43.464844 C 6.136719 -47.398438 4.351562 -52.503906 4.351562 -58.78125 Z M 4.351562 -58.78125 "/></g></g></g><g fill="#ffffff" fill-opacity="1"><g transform="translate(668.013541, 267.943679)"><g><path d="M 31.722656 1.417969 C 26.277344 1.417969 21.449219 0.179688 17.246094 -2.292969 C 13.039062 -4.765625 9.738281 -8.183594 7.347656 -12.539062 C 4.957031 -16.902344 3.761719 -21.921875 3.761719 -27.605469 C 3.761719 -33.339844 4.925781 -38.394531 7.253906 -42.765625 C 9.582031 -47.132812 12.820312 -50.5625 16.964844 -53.046875 C 21.113281 -55.53125 25.886719 -56.773438 31.289062 -56.773438 C 36.808594 -56.773438 41.582031 -55.613281 45.609375 -53.296875 C 49.636719 -50.980469 52.753906 -47.71875 54.960938 -43.515625 C 57.164062 -39.3125 58.269531 -34.339844 58.269531 -28.597656 L 58.269531 -24.480469 L 10.957031 -24.324219 L 11.179688 -33.019531 L 44.746094 -33.019531 C 44.746094 -36.839844 43.539062 -39.894531 41.128906 -42.179688 C 38.71875 -44.460938 35.464844 -45.605469 31.363281 -45.605469 C 28.152344 -45.605469 25.457031 -44.933594 23.273438 -43.59375 C 21.097656 -42.257812 19.441406 -40.257812 18.316406 -37.601562 C 17.1875 -34.945312 16.625 -31.675781 16.625 -27.785156 C 16.625 -21.839844 17.914062 -17.347656 20.492188 -14.308594 C 23.070312 -11.273438 26.890625 -9.753906 31.957031 -9.753906 C 35.675781 -9.753906 38.738281 -10.449219 41.140625 -11.84375 C 43.542969 -13.238281 45.109375 -15.230469 45.835938 -17.820312 L 58.421875 -17.820312 C 57.277344 -11.847656 54.335938 -7.148438 49.59375 -3.71875 C 44.851562 -0.296875 38.894531 1.417969 31.722656 1.417969 Z M 31.722656 1.417969 "/></g></g></g><g fill="#ffffff" fill-opacity="1"><g transform="translate(730.159552, 267.943679)"><g><path d="M 41.609375 -55.355469 L 41.609375 -42.691406 L 36.578125 -42.691406 C 31.644531 -42.691406 27.757812 -41.371094 24.910156 -38.734375 C 22.066406 -36.097656 20.644531 -32.09375 20.644531 -26.722656 L 20.644531 0 L 7.074219 0 L 7.074219 -55.042969 L 19.839844 -55.042969 L 20.945312 -43.605469 L 19.683594 -43.605469 C 20.425781 -47.257812 22.164062 -50.25 24.894531 -52.578125 C 27.625 -54.90625 31.191406 -56.070312 35.59375 -56.070312 C 36.570312 -56.070312 37.539062 -56.019531 38.507812 -55.917969 C 39.472656 -55.816406 40.507812 -55.628906 41.609375 -55.355469 Z M 41.609375 -55.355469 "/></g></g></g><g fill="#ffffff" fill-opacity="1"><g transform="translate(775.681322, 267.943679)"><g><path d="M 22.617188 0 L 0.726562 -55.121094 L 15.332031 -55.121094 L 24.882812 -29.769531 C 26.050781 -26.484375 27.070312 -23.488281 27.9375 -20.789062 C 28.808594 -18.085938 29.414062 -16.003906 29.746094 -14.539062 C 30.1875 -16.265625 30.867188 -18.484375 31.789062 -21.199219 C 32.710938 -23.914062 33.757812 -26.773438 34.925781 -29.769531 L 44.945312 -55.121094 L 59.050781 -55.121094 L 36.0625 0 Z M 22.617188 0 "/></g></g></g><g fill="#ffffff" fill-opacity="1"><g transform="translate(832.862204, 267.943679)"><g><path d="M 31.722656 1.417969 C 26.277344 1.417969 21.449219 0.179688 17.246094 -2.292969 C 13.039062 -4.765625 9.738281 -8.183594 7.347656 -12.539062 C 4.957031 -16.902344 3.761719 -21.921875 3.761719 -27.605469 C 3.761719 -33.339844 4.925781 -38.394531 7.253906 -42.765625 C 9.582031 -47.132812 12.820312 -50.5625 16.964844 -53.046875 C 21.113281 -55.53125 25.886719 -56.773438 31.289062 -56.773438 C 36.808594 -56.773438 41.582031 -55.613281 45.609375 -53.296875 C 49.636719 -50.980469 52.753906 -47.71875 54.960938 -43.515625 C 57.164062 -39.3125 58.269531 -34.339844 58.269531 -28.597656 L 58.269531 -24.480469 L 10.957031 -24.324219 L 11.179688 -33.019531 L 44.746094 -33.019531 C 44.746094 -36.839844 43.539062 -39.894531 41.128906 -42.179688 C 38.71875 -44.460938 35.464844 -45.605469 31.363281 -45.605469 C 28.152344 -45.605469 25.457031 -44.933594 23.273438 -43.59375 C 21.097656 -42.257812 19.441406 -40.257812 18.316406 -37.601562 C 17.1875 -34.945312 16.625 -31.675781 16.625 -27.785156 C 16.625 -21.839844 17.914062 -17.347656 20.492188 -14.308594 C 23.070312 -11.273438 26.890625 -9.753906 31.957031 -9.753906 C 35.675781 -9.753906 38.738281 -10.449219 41.140625 -11.84375 C 43.542969 -13.238281 45.109375 -15.230469 45.835938 -17.820312 L 58.421875 -17.820312 C 57.277344 -11.847656 54.335938 -7.148438 49.59375 -3.71875 C 44.851562 -0.296875 38.894531 1.417969 31.722656 1.417969 Z M 31.722656 1.417969 "/></g></g></g><g fill="#ffffff" fill-opacity="1"><g transform="translate(895.008179, 267.943679)"><g><path d="M 41.609375 -55.355469 L 41.609375 -42.691406 L 36.578125 -42.691406 C 31.644531 -42.691406 27.757812 -41.371094 24.910156 -38.734375 C 22.066406 -36.097656 20.644531 -32.09375 20.644531 -26.722656 L 20.644531 0 L 7.074219 0 L 7.074219 -55.042969 L 19.839844 -55.042969 L 20.945312 -43.605469 L 19.683594 -43.605469 C 20.425781 -47.257812 22.164062 -50.25 24.894531 -52.578125 C 27.625 -54.90625 31.191406 -56.070312 35.59375 -56.070312 C 36.570312 -56.070312 37.539062 -56.019531 38.507812 -55.917969 C 39.472656 -55.816406 40.507812 -55.628906 41.609375 -55.355469 Z M 41.609375 -55.355469 "/></g></g></g></g></g></g></g></svg>