<svg xmlns="http://www.w3.org/2000/svg" xmlns:xlink="http://www.w3.org/1999/xlink" width="1920" zoomAndPan="magnify" viewBox="0 0 1440 809.999993" height="1080" preserveAspectRatio="xMidYMid meet" version="1.0"><defs><g/><clipPath id="424d5f45d0"><path d="M 108.117188 273 L 303 273 L 303 425 L 108.117188 425 Z M 108.117188 273 " clip-rule="nonzero"/></clipPath><clipPath id="76fb952f64"><path d="M 108.117188 374 L 148 374 L 148 401 L 108.117188 401 Z M 108.117188 374 " clip-rule="nonzero"/></clipPath><clipPath id="5d81057c84"><path d="M 565 249 L 713 249 L 713 430.3125 L 565 430.3125 Z M 565 249 " clip-rule="nonzero"/></clipPath><clipPath id="e4050e7773"><path d="M 979 246.5625 L 1154 246.5625 L 1154 430.3125 L 979 430.3125 Z M 979 246.5625 " clip-rule="nonzero"/></clipPath><clipPath id="f9b6e063e4"><path d="M 745 36 L 784 36 L 784 92.679688 L 745 92.679688 Z M 745 36 " clip-rule="nonzero"/></clipPath><clipPath id="27a165ff5b"><rect x="0" width="983" y="0" height="93"/></clipPath></defs><path fill="#39c6d0" d="M 189.640625 251.128906 L 214.804688 251.128906 L 228.222656 254.488281 L 241.644531 259.523438 L 251.710938 265.402344 L 260.097656 272.117188 L 267.644531 278.832031 L 270.164062 282.191406 L 269.324219 284.707031 L 252.546875 292.261719 L 232.417969 302.335938 L 215.644531 311.570312 L 199.707031 319.125 L 187.125 325.003906 L 177.058594 330.039062 L 161.121094 335.078125 L 156.929688 335.914062 L 144.347656 335.914062 L 135.960938 332.558594 L 130.089844 325.84375 L 127.570312 317.449219 L 127.570312 304.855469 L 130.925781 293.101562 L 135.960938 283.03125 L 143.507812 273.796875 L 150.21875 267.917969 L 158.605469 262.042969 L 168.671875 257.007812 L 181.253906 252.808594 Z M 189.640625 251.128906 " fill-opacity="1" fill-rule="nonzero"/><g clip-path="url(#424d5f45d0)"><path fill="#39c6d0" d="M 301.195312 273.796875 L 302.875 273.796875 L 301.195312 277.152344 L 293.648438 287.226562 L 286.097656 295.621094 L 282.746094 299.820312 L 283.582031 304.015625 L 286.9375 312.410156 L 289.453125 321.644531 L 290.292969 328.359375 L 290.292969 345.148438 L 287.777344 359.421875 L 285.261719 366.976562 L 281.066406 377.050781 L 276.035156 386.285156 L 268.484375 395.519531 L 260.9375 403.914062 L 251.710938 410.628906 L 239.96875 417.34375 L 227.386719 422.382812 L 221.515625 424.058594 L 218.160156 423.21875 L 232.417969 415.664062 L 240.804688 408.109375 L 246.675781 399.714844 L 249.195312 393.839844 L 250.03125 388.800781 L 250.03125 380.40625 L 245.839844 370.332031 L 239.128906 364.457031 L 232.417969 361.9375 L 213.125 361.9375 L 199.707031 365.296875 L 191.316406 368.65625 L 164.476562 379.566406 L 149.378906 385.445312 L 142.667969 387.960938 L 129.25 393 L 118.34375 397.195312 L 108.28125 400.554688 L 108.28125 398.875 L 128.410156 386.285156 L 150.21875 372.011719 L 161.960938 364.457031 L 176.21875 355.222656 L 192.996094 344.308594 L 212.289062 331.71875 L 230.742188 319.964844 L 264.292969 298.140625 L 278.550781 288.90625 L 295.324219 277.992188 Z M 301.195312 273.796875 " fill-opacity="1" fill-rule="nonzero"/></g><path fill="#39c6d0" d="M 331.394531 251.96875 L 336.425781 251.96875 L 334.75 257.007812 L 329.714844 263.722656 L 321.328125 271.277344 L 318.8125 283.867188 L 317.132812 285.546875 L 310.425781 271.277344 L 302.035156 260.363281 L 298.679688 256.167969 L 305.390625 257.007812 L 314.617188 258.683594 L 317.972656 256.167969 L 327.199219 252.808594 Z M 331.394531 251.96875 " fill-opacity="1" fill-rule="nonzero"/><g clip-path="url(#76fb952f64)"><path fill="#39c6d0" d="M 146.023438 374.53125 L 147.703125 375.371094 L 146.863281 378.730469 L 140.152344 383.765625 L 140.152344 385.445312 L 145.1875 386.285156 L 142.667969 387.960938 L 129.25 393 L 118.34375 397.195312 L 108.28125 400.554688 L 108.28125 398.875 L 128.410156 386.285156 Z M 146.023438 374.53125 " fill-opacity="1" fill-rule="nonzero"/></g><path fill="#39c6d0" d="M 301.195312 273.796875 L 302.875 273.796875 L 301.195312 277.152344 L 293.648438 287.226562 L 288.617188 293.101562 L 286.9375 292.261719 L 286.101562 289.746094 L 275.195312 293.101562 L 273.519531 292.261719 L 295.324219 277.992188 Z M 301.195312 273.796875 " fill-opacity="1" fill-rule="nonzero"/><path fill="#39c6d0" d="M 257.582031 302.335938 L 259.257812 303.175781 L 258.421875 305.695312 L 254.226562 307.375 L 253.386719 309.890625 L 247.515625 314.089844 L 240.804688 317.449219 L 239.96875 319.125 L 230.742188 320.804688 L 234.097656 317.449219 L 254.226562 304.855469 Z M 257.582031 302.335938 " fill-opacity="1" fill-rule="nonzero"/><path fill="#39c6d0" d="M 176.21875 355.222656 L 177.898438 356.0625 L 176.21875 358.582031 L 173.703125 358.582031 L 173.703125 360.261719 L 170.347656 361.101562 L 169.511719 364.457031 L 159.445312 370.332031 L 154.414062 370.332031 L 157.765625 366.976562 L 171.1875 358.582031 Z M 176.21875 355.222656 " fill-opacity="1" fill-rule="nonzero"/><path fill="#39c6d0" d="M 291.132812 283.867188 L 291.972656 286.386719 L 290.292969 291.425781 L 287.777344 293.101562 L 286.101562 289.746094 L 275.195312 293.101562 L 273.519531 292.261719 L 283.582031 285.546875 L 289.453125 285.546875 Z M 291.132812 283.867188 " fill-opacity="1" fill-rule="nonzero"/><path fill="#39c6d0" d="M 163.640625 259.523438 L 165.316406 259.523438 L 165.316406 263.722656 L 159.445312 266.238281 L 156.929688 266.238281 L 156.089844 268.757812 L 151.894531 270.4375 L 151.894531 272.117188 L 149.378906 271.277344 L 149.378906 268.757812 L 158.605469 262.042969 Z M 163.640625 259.523438 " fill-opacity="1" fill-rule="nonzero"/><path fill="#39c6d0" d="M 233.257812 414.824219 L 234.933594 414.824219 L 234.933594 416.503906 L 239.96875 415.664062 L 239.96875 417.34375 L 227.386719 422.382812 L 221.515625 424.058594 L 218.160156 423.21875 L 232.417969 415.664062 Z M 233.257812 414.824219 " fill-opacity="1" fill-rule="nonzero"/><path fill="#39c6d0" d="M 191.316406 345.148438 L 192.996094 345.988281 L 193.835938 348.507812 L 182.929688 355.222656 L 177.898438 355.222656 L 181.253906 351.867188 Z M 191.316406 345.148438 " fill-opacity="1" fill-rule="nonzero"/><path fill="#39c6d0" d="M 243.324219 404.753906 L 244.160156 407.269531 L 244.160156 409.789062 L 242.484375 409.789062 L 242.484375 411.46875 L 240.804688 411.46875 L 241.644531 413.984375 L 243.324219 415.664062 L 237.449219 416.503906 L 234.933594 416.503906 L 235.773438 413.148438 L 241.644531 407.269531 Z M 243.324219 404.753906 " fill-opacity="1" fill-rule="nonzero"/><path fill="#39c6d0" d="M 271.839844 293.101562 L 273.519531 293.101562 L 274.355469 296.460938 L 269.324219 299.820312 L 265.96875 300.65625 L 265.96875 298.980469 L 264.292969 298.140625 Z M 271.839844 293.101562 " fill-opacity="1" fill-rule="nonzero"/><path fill="#39c6d0" d="M 163.640625 331.71875 L 166.15625 333.398438 L 156.929688 335.914062 L 144.347656 335.914062 L 144.347656 335.078125 L 155.25 335.078125 L 156.089844 332.558594 L 161.960938 332.558594 Z M 163.640625 331.71875 " fill-opacity="1" fill-rule="nonzero"/><path fill="#39c6d0" d="M 146.023438 374.53125 L 147.703125 375.371094 L 146.863281 378.730469 L 140.992188 382.925781 L 138.476562 382.085938 L 140.992188 377.890625 Z M 146.023438 374.53125 " fill-opacity="1" fill-rule="nonzero"/><path fill="#39c6d0" d="M 212.289062 331.71875 L 213.964844 332.558594 L 213.125 335.914062 L 209.773438 336.753906 L 207.253906 339.273438 L 202.222656 339.273438 L 204.738281 336.753906 Z M 212.289062 331.71875 " fill-opacity="1" fill-rule="nonzero"/><path fill="#39c6d0" d="M 224.03125 324.164062 L 225.707031 325.003906 L 223.191406 327.519531 L 224.871094 328.359375 L 215.644531 331.71875 L 213.964844 330.878906 Z M 224.03125 324.164062 " fill-opacity="1" fill-rule="nonzero"/><path fill="#39c6d0" d="M 264.292969 395.519531 L 266.808594 396.359375 L 265.128906 399.714844 L 260.9375 403.914062 L 259.257812 403.914062 L 260.097656 399.714844 L 263.453125 398.035156 Z M 264.292969 395.519531 " fill-opacity="1" fill-rule="nonzero"/><path fill="#39c6d0" d="M 176.21875 355.222656 L 177.898438 356.0625 L 176.21875 358.582031 L 173.703125 358.582031 L 173.703125 360.261719 L 170.347656 361.101562 L 169.511719 362.777344 L 164.476562 363.617188 L 166.996094 361.101562 Z M 176.21875 355.222656 " fill-opacity="1" fill-rule="nonzero"/><path fill="#39c6d0" d="M 200.546875 339.273438 L 202.222656 340.113281 L 201.382812 341.792969 L 203.0625 342.632812 L 198.867188 344.308594 L 198.867188 342.632812 L 196.351562 345.148438 L 196.351562 346.828125 L 192.996094 345.148438 L 196.351562 341.792969 Z M 200.546875 339.273438 " fill-opacity="1" fill-rule="nonzero"/><path fill="#39c6d0" d="M 298.679688 256.167969 L 305.390625 257.007812 L 309.585938 257.84375 L 309.585938 258.683594 L 305.390625 259.523438 L 303.714844 262.042969 Z M 298.679688 256.167969 " fill-opacity="1" fill-rule="nonzero"/><path fill="#39c6d0" d="M 248.355469 395.519531 L 250.03125 397.195312 L 250.03125 402.234375 L 245.839844 404.753906 L 244.160156 403.914062 Z M 248.355469 395.519531 " fill-opacity="1" fill-rule="nonzero"/><path fill="#39c6d0" d="M 301.195312 273.796875 L 302.875 273.796875 L 301.195312 277.152344 L 297.84375 282.191406 L 297.003906 278.832031 L 295.324219 277.992188 Z M 301.195312 273.796875 " fill-opacity="1" fill-rule="nonzero"/><path fill="#39c6d0" d="M 245.839844 309.890625 L 249.195312 311.570312 L 247.515625 314.089844 L 244.160156 314.089844 L 239.96875 314.929688 L 243.324219 311.570312 Z M 245.839844 309.890625 " fill-opacity="1" fill-rule="nonzero"/><path fill="#39c6d0" d="M 322.167969 265.402344 L 326.359375 266.238281 L 322.167969 270.4375 L 320.488281 271.277344 L 319.652344 267.917969 Z M 322.167969 265.402344 " fill-opacity="1" fill-rule="nonzero"/><path fill="#39c6d0" d="M 243.324219 404.753906 L 244.160156 407.269531 L 244.160156 409.789062 L 242.484375 409.789062 L 242.484375 411.46875 L 237.449219 412.308594 L 242.484375 405.589844 Z M 243.324219 404.753906 " fill-opacity="1" fill-rule="nonzero"/><path fill="#39c6d0" d="M 162.800781 363.617188 L 164.476562 364.457031 L 160.285156 367.816406 L 159.445312 370.332031 L 154.414062 370.332031 L 157.765625 366.976562 Z M 162.800781 363.617188 " fill-opacity="1" fill-rule="nonzero"/><path fill="#39c6d0" d="M 139.3125 278.832031 L 140.152344 280.511719 L 137.636719 285.546875 L 135.121094 288.90625 L 133.441406 288.90625 L 135.121094 284.707031 Z M 139.3125 278.832031 " fill-opacity="1" fill-rule="nonzero"/><path fill="#39c6d0" d="M 429.65625 427.417969 L 389.097656 427.417969 L 452.453125 249.683594 L 490.371094 249.683594 L 553.484375 427.417969 L 512.207031 427.417969 L 499.730469 389.949219 L 442.375 389.949219 Z M 466.371094 319.335938 L 453.652344 357.285156 L 488.691406 357.285156 L 475.972656 319.335938 C 474.050781 313.332031 471.890625 306.367188 471.171875 302.042969 C 470.453125 306.125 468.53125 312.851562 466.371094 319.335938 Z M 466.371094 319.335938 " fill-opacity="1" fill-rule="nonzero"/><g clip-path="url(#5d81057c84)"><path fill="#39c6d0" d="M 565.6875 360.648438 L 565.6875 249.683594 L 604.566406 249.683594 L 604.566406 358.003906 C 604.566406 380.34375 616.804688 392.589844 638.644531 392.589844 C 660.722656 392.589844 673.203125 379.863281 673.203125 358.003906 L 673.203125 249.683594 L 712.078125 249.683594 L 712.078125 360.648438 C 712.078125 402.917969 683.28125 430.300781 638.644531 430.300781 C 594.246094 430.300781 565.6875 403.160156 565.6875 360.648438 Z M 565.6875 360.648438 " fill-opacity="1" fill-rule="nonzero"/></g><path fill="#39c6d0" d="M 786.691406 427.417969 L 747.816406 427.417969 L 747.816406 249.683594 L 816.449219 249.683594 C 859.644531 249.683594 884.125 270.578125 884.125 307.328125 C 884.125 330.382812 874.28125 346.71875 854.605469 356.804688 L 885.800781 427.417969 L 843.328125 427.417969 L 816.6875 365.210938 L 786.691406 365.210938 Z M 786.691406 284.269531 L 786.691406 331.105469 L 816.207031 331.105469 C 833.25 331.105469 843.085938 322.457031 843.085938 307.328125 C 843.085938 292.4375 833.726562 284.269531 816.449219 284.269531 Z M 786.691406 284.269531 " fill-opacity="1" fill-rule="nonzero"/><path fill="#39c6d0" d="M 913.035156 249.683594 L 951.910156 249.683594 L 951.910156 427.417969 L 913.035156 427.417969 Z M 913.035156 249.683594 " fill-opacity="1" fill-rule="nonzero"/><g clip-path="url(#e4050e7773)"><path fill="#39c6d0" d="M 1153.113281 338.3125 C 1153.113281 392.589844 1117.359375 430.300781 1065.761719 430.300781 C 1014.402344 430.300781 979.125 392.832031 979.125 338.550781 C 979.125 284.269531 1014.640625 246.5625 1065.996094 246.5625 C 1117.597656 246.5625 1153.113281 284.03125 1153.113281 338.3125 Z M 1112.078125 338.3125 C 1112.078125 304.445312 1094.796875 284.03125 1066.242188 284.03125 C 1037.441406 284.03125 1020.164062 304.445312 1020.164062 338.3125 C 1020.164062 372.417969 1037.441406 392.832031 1066.242188 392.832031 C 1094.796875 392.832031 1112.078125 371.9375 1112.078125 338.3125 Z M 1112.078125 338.3125 " fill-opacity="1" fill-rule="nonzero"/></g><path fill="#39c6d0" d="M 1218.597656 427.417969 L 1180.203125 427.417969 L 1180.203125 249.683594 L 1218.597656 249.683594 L 1293.472656 362.808594 L 1293.472656 249.683594 L 1331.871094 249.683594 L 1331.871094 427.417969 L 1293.472656 427.417969 L 1218.597656 314.53125 Z M 1218.597656 427.417969 " fill-opacity="1" fill-rule="nonzero"/><g transform="matrix(1, 0, 0, 1, 108, 473)"><g clip-path="url(#27a165ff5b)"><g fill="#39c6d0" fill-opacity="1"><g transform="translate(0.259879, 74.214963)"><g><path d="M 54.765625 -26.832031 C 54.765625 -21.382812 53.664062 -16.578125 51.460938 -12.410156 C 49.257812 -8.246094 46.203125 -4.988281 42.292969 -2.640625 C 38.382812 -0.292969 33.855469 0.878906 28.714844 0.878906 C 23.617188 0.878906 19.121094 -0.292969 15.222656 -2.640625 C 11.320312 -4.988281 8.28125 -8.234375 6.101562 -12.386719 C 3.925781 -16.535156 2.835938 -21.332031 2.835938 -26.777344 C 2.835938 -32.226562 3.9375 -37.03125 6.140625 -41.199219 C 8.34375 -45.363281 11.390625 -48.621094 15.28125 -50.96875 C 19.175781 -53.316406 23.671875 -54.488281 28.765625 -54.488281 C 33.910156 -54.488281 38.425781 -53.316406 42.320312 -50.96875 C 46.210938 -48.621094 49.257812 -45.371094 51.460938 -41.222656 C 53.664062 -37.074219 54.765625 -32.277344 54.765625 -26.832031 Z M 44.917969 -26.832031 C 44.917969 -30.652344 44.257812 -33.949219 42.9375 -36.730469 C 41.617188 -39.515625 39.757812 -41.667969 37.359375 -43.191406 C 34.960938 -44.714844 32.113281 -45.476562 28.816406 -45.476562 C 25.535156 -45.476562 22.683594 -44.714844 20.269531 -43.191406 C 17.855469 -41.667969 15.984375 -39.515625 14.664062 -36.730469 C 13.34375 -33.949219 12.683594 -30.652344 12.683594 -26.832031 C 12.683594 -23.027344 13.34375 -19.71875 14.664062 -16.914062 C 15.984375 -14.109375 17.855469 -11.941406 20.269531 -10.417969 C 22.683594 -8.894531 25.535156 -8.132812 28.816406 -8.132812 C 32.113281 -8.132812 34.960938 -8.902344 37.359375 -10.445312 C 39.757812 -11.984375 41.617188 -14.160156 42.9375 -16.964844 C 44.257812 -19.769531 44.917969 -23.058594 44.917969 -26.832031 Z M 44.917969 -26.832031 "/></g></g></g><g fill="#39c6d0" fill-opacity="1"><g transform="translate(57.848073, 74.214963)"><g><path d="M 29.191406 -36.195312 L 38.097656 -36.195312 L 38.097656 0 L 29.851562 0 L 29.140625 -4.828125 C 28.074219 -3.109375 26.46875 -1.71875 24.316406 -0.660156 C 22.167969 0.402344 19.886719 0.929688 17.46875 0.929688 C 13.300781 0.929688 10.046875 -0.378906 7.710938 -3 C 5.375 -5.621094 4.207031 -9.148438 4.207031 -13.585938 L 4.207031 -36.214844 L 13.136719 -36.214844 L 13.136719 -16.71875 C 13.136719 -13.285156 13.796875 -10.8125 15.121094 -9.292969 C 16.445312 -7.777344 18.351562 -7.019531 20.835938 -7.019531 C 23.660156 -7.019531 25.757812 -7.859375 27.128906 -9.539062 C 28.503906 -11.21875 29.191406 -13.785156 29.191406 -17.234375 Z M 29.191406 -36.195312 "/></g></g></g><g fill="#39c6d0" fill-opacity="1"><g transform="translate(100.562982, 74.214963)"><g><path d="M 27.320312 -36.347656 L 27.320312 -28.03125 L 24.015625 -28.03125 C 20.777344 -28.03125 18.226562 -27.164062 16.355469 -25.433594 C 14.488281 -23.703125 13.554688 -21.074219 13.554688 -17.546875 L 13.554688 0 L 4.644531 0 L 4.644531 -36.144531 L 13.027344 -36.144531 L 13.753906 -28.632812 L 12.925781 -28.632812 C 13.414062 -31.03125 14.554688 -32.996094 16.34375 -34.523438 C 18.136719 -36.050781 20.480469 -36.816406 23.371094 -36.816406 C 24.011719 -36.816406 24.648438 -36.785156 25.285156 -36.71875 C 25.917969 -36.652344 26.597656 -36.527344 27.320312 -36.347656 Z M 27.320312 -36.347656 "/></g></g></g><g fill="#39c6d0" fill-opacity="1"><g transform="translate(129.35708, 74.214963)"><g/></g></g><g fill="#39c6d0" fill-opacity="1"><g transform="translate(149.066014, 74.214963)"><g><path d="M 17.101562 0 L 1.097656 -53.558594 L 10.867188 -53.558594 L 19.3125 -25.269531 C 19.757812 -23.789062 20.179688 -22.234375 20.574219 -20.605469 C 20.96875 -18.976562 21.371094 -16.996094 21.78125 -14.660156 C 22.222656 -17.054688 22.648438 -19.042969 23.066406 -20.625 C 23.484375 -22.207031 23.917969 -23.757812 24.363281 -25.269531 L 32.832031 -53.558594 L 43.167969 -53.558594 L 51.457031 -25.269531 C 51.878906 -23.742188 52.300781 -22.152344 52.71875 -20.507812 C 53.136719 -18.863281 53.566406 -16.921875 54.011719 -14.683594 C 54.507812 -17.140625 54.953125 -19.164062 55.355469 -20.761719 C 55.761719 -22.355469 56.167969 -23.824219 56.585938 -25.167969 L 65.179688 -53.558594 L 74.71875 -53.558594 L 58.46875 0 L 49.398438 0 L 37.921875 -38.992188 L 26.265625 0 Z M 17.101562 0 "/></g></g></g><g fill="#39c6d0" fill-opacity="1"><g transform="translate(219.695795, 74.214963)"><g><path d="M 20.828125 0.929688 C 17.253906 0.929688 14.085938 0.117188 11.324219 -1.503906 C 8.5625 -3.128906 6.394531 -5.371094 4.824219 -8.234375 C 3.253906 -11.097656 2.46875 -14.394531 2.46875 -18.125 C 2.46875 -21.890625 3.234375 -25.210938 4.761719 -28.078125 C 6.292969 -30.949219 8.417969 -33.199219 11.140625 -34.832031 C 13.863281 -36.460938 16.996094 -37.277344 20.542969 -37.277344 C 24.167969 -37.277344 27.304688 -36.515625 29.949219 -34.996094 C 32.59375 -33.472656 34.640625 -31.335938 36.085938 -28.574219 C 37.535156 -25.816406 38.261719 -22.550781 38.261719 -18.777344 L 38.261719 -16.074219 L 7.195312 -15.972656 L 7.339844 -21.679688 L 29.378906 -21.679688 C 29.378906 -24.191406 28.589844 -26.195312 27.007812 -27.695312 C 25.421875 -29.195312 23.285156 -29.945312 20.59375 -29.945312 C 18.484375 -29.945312 16.714844 -29.503906 15.28125 -28.625 C 13.851562 -27.746094 12.765625 -26.433594 12.027344 -24.691406 C 11.285156 -22.945312 10.917969 -20.796875 10.917969 -18.242188 C 10.917969 -14.339844 11.761719 -11.390625 13.453125 -9.398438 C 15.148438 -7.402344 17.65625 -6.402344 20.984375 -6.402344 C 23.425781 -6.402344 25.4375 -6.863281 27.015625 -7.777344 C 28.589844 -8.695312 29.621094 -10 30.097656 -11.699219 L 38.363281 -11.699219 C 37.609375 -7.777344 35.679688 -4.691406 32.5625 -2.441406 C 29.449219 -0.195312 25.539062 0.929688 20.828125 0.929688 Z M 20.828125 0.929688 "/></g></g><g transform="translate(260.505759, 74.214963)"><g><path d="M 12.894531 0 L 4.644531 0 L 4.644531 -54.539062 L 13.554688 -54.539062 L 13.554688 -30.933594 C 14.722656 -32.960938 16.4375 -34.535156 18.695312 -35.652344 C 20.953125 -36.769531 23.476562 -37.328125 26.257812 -37.328125 C 29.691406 -37.328125 32.648438 -36.503906 35.128906 -34.847656 C 37.605469 -33.195312 39.515625 -30.910156 40.851562 -27.988281 C 42.191406 -25.066406 42.863281 -21.683594 42.863281 -17.839844 C 42.863281 -14.167969 42.148438 -10.914062 40.726562 -8.078125 C 39.300781 -5.242188 37.300781 -3.03125 34.71875 -1.445312 C 32.136719 0.136719 29.113281 0.929688 25.644531 0.929688 C 22.957031 0.929688 20.523438 0.347656 18.34375 -0.820312 C 16.167969 -1.988281 14.539062 -3.601562 13.460938 -5.65625 Z M 13.628906 -18.25 C 13.628906 -16.09375 14.046875 -14.175781 14.882812 -12.507812 C 15.722656 -10.835938 16.90625 -9.539062 18.441406 -8.613281 C 19.972656 -7.6875 21.773438 -7.222656 23.839844 -7.222656 C 25.941406 -7.222656 27.738281 -7.695312 29.230469 -8.636719 C 30.722656 -9.582031 31.871094 -10.878906 32.675781 -12.53125 C 33.476562 -14.1875 33.878906 -16.09375 33.878906 -18.25 C 33.878906 -20.410156 33.476562 -22.3125 32.675781 -23.957031 C 31.871094 -25.605469 30.722656 -26.902344 29.230469 -27.851562 C 27.738281 -28.800781 25.941406 -29.277344 23.839844 -29.277344 C 21.773438 -29.277344 19.972656 -28.8125 18.441406 -27.878906 C 16.90625 -26.945312 15.722656 -25.65625 14.882812 -24.011719 C 14.046875 -22.363281 13.628906 -20.445312 13.628906 -18.25 Z M 13.628906 -18.25 "/></g></g><g transform="translate(305.858305, 74.214963)"><g><path d="M 1.851562 -10.960938 L 10.332031 -10.960938 C 10.398438 -9.398438 10.996094 -8.160156 12.121094 -7.253906 C 13.25 -6.34375 14.8125 -5.890625 16.816406 -5.890625 C 18.941406 -5.890625 20.550781 -6.28125 21.640625 -7.066406 C 22.738281 -7.851562 23.285156 -8.890625 23.285156 -10.183594 C 23.285156 -11.074219 23 -11.851562 22.429688 -12.519531 C 21.863281 -13.191406 20.753906 -13.714844 19.109375 -14.097656 L 12.609375 -15.585938 C 9.355469 -16.332031 6.929688 -17.519531 5.328125 -19.148438 C 3.726562 -20.777344 2.925781 -23.042969 2.925781 -25.945312 C 2.925781 -28.308594 3.542969 -30.332031 4.785156 -32.019531 C 6.023438 -33.707031 7.722656 -35.007812 9.878906 -35.914062 C 12.035156 -36.824219 14.5 -37.277344 17.269531 -37.277344 C 19.984375 -37.277344 22.367188 -36.792969 24.417969 -35.828125 C 26.464844 -34.859375 28.066406 -33.5 29.222656 -31.746094 C 30.378906 -29.992188 30.960938 -27.921875 30.976562 -25.535156 L 22.5 -25.535156 C 22.472656 -27.109375 21.96875 -28.351562 20.996094 -29.253906 C 20.019531 -30.160156 18.660156 -30.609375 16.910156 -30.609375 C 15.171875 -30.609375 13.8125 -30.226562 12.835938 -29.453125 C 11.859375 -28.683594 11.371094 -27.632812 11.371094 -26.304688 C 11.371094 -24.285156 12.925781 -22.910156 16.03125 -22.179688 L 22.558594 -20.691406 C 25.601562 -20.011719 27.890625 -18.90625 29.425781 -17.375 C 30.964844 -15.84375 31.730469 -13.6875 31.730469 -10.902344 C 31.730469 -8.488281 31.089844 -6.390625 29.8125 -4.601562 C 28.53125 -2.8125 26.753906 -1.445312 24.472656 -0.496094 C 22.191406 0.457031 19.550781 0.929688 16.550781 0.929688 C 12.050781 0.929688 8.476562 -0.164062 5.828125 -2.351562 C 3.179688 -4.539062 1.851562 -7.410156 1.851562 -10.960938 Z M 1.851562 -10.960938 "/></g></g></g><g fill="#39c6d0" fill-opacity="1"><g transform="translate(339.78114, 74.214963)"><g><path d="M 4.644531 0 L 4.644531 -36.195312 L 13.554688 -36.195312 L 13.554688 0 Z M 9.046875 -43.425781 C 7.535156 -43.425781 6.25 -43.953125 5.195312 -45.007812 C 4.140625 -46.0625 3.613281 -47.339844 3.613281 -48.839844 C 3.613281 -50.355469 4.140625 -51.632812 5.195312 -52.679688 C 6.25 -53.726562 7.535156 -54.246094 9.046875 -54.246094 C 10.527344 -54.246094 11.796875 -53.726562 12.851562 -52.679688 C 13.90625 -51.632812 14.433594 -50.355469 14.433594 -48.839844 C 14.433594 -47.339844 13.90625 -46.0625 12.851562 -45.007812 C 11.796875 -43.953125 10.527344 -43.425781 9.046875 -43.425781 Z M 9.046875 -43.425781 "/></g></g><g transform="translate(357.951466, 74.214963)"><g><path d="M 1.003906 -36.195312 L 23.921875 -36.195312 L 23.921875 -28.75 L 1.003906 -28.75 Z M 16.917969 0 L 8.007812 0 L 8.007812 -47.484375 L 16.917969 -47.484375 Z M 16.917969 0 "/></g></g></g><g fill="#39c6d0" fill-opacity="1"><g transform="translate(382.49603, 74.214963)"><g><path d="M 20.828125 0.929688 C 17.253906 0.929688 14.085938 0.117188 11.324219 -1.503906 C 8.5625 -3.128906 6.394531 -5.371094 4.824219 -8.234375 C 3.253906 -11.097656 2.46875 -14.394531 2.46875 -18.125 C 2.46875 -21.890625 3.234375 -25.210938 4.761719 -28.078125 C 6.292969 -30.949219 8.417969 -33.199219 11.140625 -34.832031 C 13.863281 -36.460938 16.996094 -37.277344 20.542969 -37.277344 C 24.167969 -37.277344 27.304688 -36.515625 29.949219 -34.996094 C 32.59375 -33.472656 34.640625 -31.335938 36.085938 -28.574219 C 37.535156 -25.816406 38.261719 -22.550781 38.261719 -18.777344 L 38.261719 -16.074219 L 7.195312 -15.972656 L 7.339844 -21.679688 L 29.378906 -21.679688 C 29.378906 -24.191406 28.589844 -26.195312 27.007812 -27.695312 C 25.421875 -29.195312 23.285156 -29.945312 20.59375 -29.945312 C 18.484375 -29.945312 16.714844 -29.503906 15.28125 -28.625 C 13.851562 -27.746094 12.765625 -26.433594 12.027344 -24.691406 C 11.285156 -22.945312 10.917969 -20.796875 10.917969 -18.242188 C 10.917969 -14.339844 11.761719 -11.390625 13.453125 -9.398438 C 15.148438 -7.402344 17.65625 -6.402344 20.984375 -6.402344 C 23.425781 -6.402344 25.4375 -6.863281 27.015625 -7.777344 C 28.589844 -8.695312 29.621094 -10 30.097656 -11.699219 L 38.363281 -11.699219 C 37.609375 -7.777344 35.679688 -4.691406 32.5625 -2.441406 C 29.449219 -0.195312 25.539062 0.929688 20.828125 0.929688 Z M 20.828125 0.929688 "/></g></g></g><g fill="#39c6d0" fill-opacity="1"><g transform="translate(423.305974, 74.214963)"><g/></g></g><g fill="#39c6d0" fill-opacity="1"><g transform="translate(443.014949, 74.214963)"><g><path d="M 5.929688 -53.558594 L 15.292969 -53.558594 L 15.292969 0 L 5.929688 0 Z M 5.929688 -53.558594 "/></g></g></g><g fill="#39c6d0" fill-opacity="1"><g transform="translate(464.262493, 74.214963)"><g><path d="M 1.851562 -10.960938 L 10.332031 -10.960938 C 10.398438 -9.398438 10.996094 -8.160156 12.121094 -7.253906 C 13.25 -6.34375 14.8125 -5.890625 16.816406 -5.890625 C 18.941406 -5.890625 20.550781 -6.28125 21.640625 -7.066406 C 22.738281 -7.851562 23.285156 -8.890625 23.285156 -10.183594 C 23.285156 -11.074219 23 -11.851562 22.429688 -12.519531 C 21.863281 -13.191406 20.753906 -13.714844 19.109375 -14.097656 L 12.609375 -15.585938 C 9.355469 -16.332031 6.929688 -17.519531 5.328125 -19.148438 C 3.726562 -20.777344 2.925781 -23.042969 2.925781 -25.945312 C 2.925781 -28.308594 3.542969 -30.332031 4.785156 -32.019531 C 6.023438 -33.707031 7.722656 -35.007812 9.878906 -35.914062 C 12.035156 -36.824219 14.5 -37.277344 17.269531 -37.277344 C 19.984375 -37.277344 22.367188 -36.792969 24.417969 -35.828125 C 26.464844 -34.859375 28.066406 -33.5 29.222656 -31.746094 C 30.378906 -29.992188 30.960938 -27.921875 30.976562 -25.535156 L 22.5 -25.535156 C 22.472656 -27.109375 21.96875 -28.351562 20.996094 -29.253906 C 20.019531 -30.160156 18.660156 -30.609375 16.910156 -30.609375 C 15.171875 -30.609375 13.8125 -30.226562 12.835938 -29.453125 C 11.859375 -28.683594 11.371094 -27.632812 11.371094 -26.304688 C 11.371094 -24.285156 12.925781 -22.910156 16.03125 -22.179688 L 22.558594 -20.691406 C 25.601562 -20.011719 27.890625 -18.90625 29.425781 -17.375 C 30.964844 -15.84375 31.730469 -13.6875 31.730469 -10.902344 C 31.730469 -8.488281 31.089844 -6.390625 29.8125 -4.601562 C 28.53125 -2.8125 26.753906 -1.445312 24.472656 -0.496094 C 22.191406 0.457031 19.550781 0.929688 16.550781 0.929688 C 12.050781 0.929688 8.476562 -0.164062 5.828125 -2.351562 C 3.179688 -4.539062 1.851562 -7.410156 1.851562 -10.960938 Z M 1.851562 -10.960938 "/></g></g></g><g fill="#39c6d0" fill-opacity="1"><g transform="translate(498.185289, 74.214963)"><g/></g></g><g fill="#39c6d0" fill-opacity="1"><g transform="translate(517.894263, 74.214963)"><g><path d="M 28.582031 0.859375 C 23.363281 0.859375 18.828125 -0.277344 14.976562 -2.550781 C 11.121094 -4.820312 8.136719 -8.023438 6.015625 -12.15625 C 3.894531 -16.289062 2.835938 -21.144531 2.835938 -26.726562 C 2.835938 -32.292969 3.929688 -37.148438 6.117188 -41.296875 C 8.304688 -45.445312 11.371094 -48.671875 15.316406 -50.980469 C 19.261719 -53.285156 23.832031 -54.4375 29.027344 -54.4375 C 33.277344 -54.4375 37.089844 -53.660156 40.460938 -52.101562 C 43.835938 -50.546875 46.613281 -48.355469 48.804688 -45.53125 C 50.992188 -42.707031 52.382812 -39.375 52.980469 -35.542969 L 43.042969 -35.542969 C 42.144531 -38.671875 40.4375 -41.101562 37.921875 -42.832031 C 35.40625 -44.5625 32.351562 -45.425781 28.757812 -45.425781 C 25.488281 -45.425781 22.648438 -44.667969 20.230469 -43.152344 C 17.8125 -41.632812 15.949219 -39.484375 14.640625 -36.703125 C 13.335938 -33.921875 12.683594 -30.613281 12.683594 -26.777344 C 12.683594 -23.027344 13.34375 -19.75 14.667969 -16.941406 C 15.992188 -14.136719 17.863281 -11.96875 20.28125 -10.445312 C 22.699219 -8.917969 25.523438 -8.15625 28.757812 -8.15625 C 32.386719 -8.15625 35.503906 -9.03125 38.109375 -10.78125 C 40.714844 -12.53125 42.457031 -14.90625 43.335938 -17.898438 L 53.117188 -17.898438 C 52.425781 -14.15625 50.949219 -10.875 48.6875 -8.050781 C 46.425781 -5.226562 43.570312 -3.039062 40.125 -1.480469 C 36.679688 0.078125 32.832031 0.859375 28.582031 0.859375 Z M 28.582031 0.859375 "/></g></g></g><g fill="#39c6d0" fill-opacity="1"><g transform="translate(573.504205, 74.214963)"><g><path d="M 2.46875 -18.148438 C 2.46875 -21.917969 3.304688 -25.234375 4.972656 -28.097656 C 6.640625 -30.960938 8.9375 -33.195312 11.867188 -34.808594 C 14.792969 -36.421875 18.125 -37.226562 21.855469 -37.226562 C 25.601562 -37.226562 28.925781 -36.421875 31.832031 -34.808594 C 34.734375 -33.195312 37.019531 -30.960938 38.6875 -28.097656 C 40.355469 -25.234375 41.191406 -21.917969 41.191406 -18.148438 C 41.191406 -14.390625 40.355469 -11.085938 38.6875 -8.234375 C 37.019531 -5.382812 34.734375 -3.152344 31.832031 -1.539062 C 28.925781 0.0742188 25.601562 0.878906 21.855469 0.878906 C 18.125 0.878906 14.792969 0.0742188 11.867188 -1.539062 C 8.9375 -3.152344 6.640625 -5.382812 4.972656 -8.234375 C 3.304688 -11.085938 2.46875 -14.390625 2.46875 -18.148438 Z M 11.453125 -18.199219 C 11.453125 -16.007812 11.894531 -14.074219 12.785156 -12.402344 C 13.675781 -10.734375 14.894531 -9.433594 16.449219 -8.507812 C 18 -7.585938 19.804688 -7.121094 21.855469 -7.121094 C 23.90625 -7.121094 25.710938 -7.585938 27.261719 -8.507812 C 28.816406 -9.433594 30.027344 -10.734375 30.902344 -12.402344 C 31.773438 -14.074219 32.207031 -16.007812 32.207031 -18.199219 C 32.207031 -20.40625 31.773438 -22.332031 30.902344 -23.980469 C 30.027344 -25.625 28.816406 -26.914062 27.261719 -27.839844 C 25.710938 -28.765625 23.90625 -29.226562 21.855469 -29.226562 C 19.804688 -29.226562 18 -28.765625 16.449219 -27.839844 C 14.894531 -26.914062 13.675781 -25.625 12.785156 -23.980469 C 11.894531 -22.332031 11.453125 -20.40625 11.453125 -18.199219 Z M 11.453125 -18.199219 "/></g></g></g><g fill="#39c6d0" fill-opacity="1"><g transform="translate(617.171607, 74.214963)"><g><path d="M 13.554688 0 L 4.644531 0 L 4.644531 -36.195312 L 12.84375 -36.195312 L 13.914062 -29.738281 L 12.894531 -30.664062 C 13.628906 -32.421875 14.96875 -33.964844 16.917969 -35.289062 C 18.867188 -36.613281 21.304688 -37.277344 24.230469 -37.277344 C 27.4375 -37.277344 30.054688 -36.445312 32.074219 -34.785156 C 34.09375 -33.121094 35.492188 -30.929688 36.273438 -28.207031 L 34.78125 -28.207031 C 35.320312 -30.929688 36.707031 -33.121094 38.929688 -34.785156 C 41.15625 -36.445312 43.851562 -37.277344 47.023438 -37.277344 C 51.425781 -37.277344 54.796875 -36.054688 57.140625 -33.601562 C 59.484375 -31.15625 60.660156 -27.84375 60.660156 -23.671875 L 60.660156 0 L 51.792969 0 L 51.792969 -21.335938 C 51.792969 -23.910156 51.152344 -25.867188 49.871094 -27.210938 C 48.585938 -28.554688 46.875 -29.226562 44.730469 -29.226562 C 43.316406 -29.226562 42.039062 -28.914062 40.894531 -28.289062 C 39.75 -27.664062 38.832031 -26.707031 38.144531 -25.417969 C 37.460938 -24.132812 37.117188 -22.492188 37.117188 -20.492188 L 37.117188 0 L 28.230469 0 L 28.230469 -21.359375 C 28.230469 -23.933594 27.597656 -25.878906 26.332031 -27.195312 C 25.066406 -28.515625 23.363281 -29.175781 21.21875 -29.175781 C 19.804688 -29.175781 18.519531 -28.863281 17.355469 -28.238281 C 16.195312 -27.613281 15.269531 -26.660156 14.582031 -25.378906 C 13.898438 -24.101562 13.554688 -22.480469 13.554688 -20.515625 Z M 13.554688 0 "/></g></g></g><g fill="#39c6d0" fill-opacity="1"><g transform="translate(682.013325, 74.214963)"><g><path d="M 4.644531 0 L 4.644531 -36.195312 L 13.554688 -36.195312 L 13.554688 0 Z M 9.046875 -43.425781 C 7.535156 -43.425781 6.25 -43.953125 5.195312 -45.007812 C 4.140625 -46.0625 3.613281 -47.339844 3.613281 -48.839844 C 3.613281 -50.355469 4.140625 -51.632812 5.195312 -52.679688 C 6.25 -53.726562 7.535156 -54.246094 9.046875 -54.246094 C 10.527344 -54.246094 11.796875 -53.726562 12.851562 -52.679688 C 13.90625 -51.632812 14.433594 -50.355469 14.433594 -48.839844 C 14.433594 -47.339844 13.90625 -46.0625 12.851562 -45.007812 C 11.796875 -43.953125 10.527344 -43.425781 9.046875 -43.425781 Z M 9.046875 -43.425781 "/></g></g></g><g fill="#39c6d0" fill-opacity="1"><g transform="translate(700.183571, 74.214963)"><g><path d="M 13.554688 0 L 4.644531 0 L 4.644531 -36.195312 L 12.894531 -36.195312 L 13.628906 -31.484375 C 14.765625 -33.308594 16.363281 -34.730469 18.421875 -35.75 C 20.480469 -36.769531 22.746094 -37.277344 25.210938 -37.277344 C 29.75 -37.277344 33.175781 -35.945312 35.488281 -33.273438 C 37.804688 -30.605469 38.964844 -26.9375 38.964844 -22.265625 L 38.964844 0 L 30.054688 0 L 30.054688 -20.171875 C 30.054688 -23.167969 29.363281 -25.421875 27.976562 -26.921875 C 26.59375 -28.425781 24.738281 -29.175781 22.417969 -29.175781 C 19.644531 -29.175781 17.472656 -28.296875 15.90625 -26.542969 C 14.339844 -24.792969 13.554688 -22.445312 13.554688 -19.503906 Z M 13.554688 0 "/></g></g></g><g clip-path="url(#f9b6e063e4)"><g fill="#39c6d0" fill-opacity="1"><g transform="translate(743.338103, 74.214963)"><g><path d="M 2.570312 -18.886719 C 2.570312 -22.425781 3.285156 -25.578125 4.71875 -28.34375 C 6.148438 -31.109375 8.164062 -33.300781 10.757812 -34.910156 C 13.355469 -36.523438 16.371094 -37.328125 19.804688 -37.328125 C 22.875 -37.328125 25.507812 -36.648438 27.703125 -35.285156 C 29.894531 -33.921875 31.425781 -32.0625 32.296875 -29.703125 L 31.328125 -28.859375 L 32.121094 -36.195312 L 40.371094 -36.195312 L 40.371094 -1.863281 C 40.371094 2.164062 39.601562 5.648438 38.0625 8.59375 C 36.523438 11.539062 34.34375 13.808594 31.527344 15.394531 C 28.707031 16.988281 25.339844 17.78125 21.414062 17.78125 C 16.210938 17.78125 11.945312 16.390625 8.628906 13.605469 C 5.308594 10.820312 3.351562 7.015625 2.753906 2.191406 L 11.746094 2.191406 C 12.019531 4.550781 13.003906 6.386719 14.703125 7.703125 C 16.40625 9.019531 18.632812 9.679688 21.386719 9.679688 C 24.472656 9.679688 26.925781 8.78125 28.75 6.988281 C 30.570312 5.195312 31.484375 2.792969 31.484375 -0.21875 L 31.484375 -9.261719 L 32.53125 -8.308594 C 31.660156 -5.992188 30.050781 -4.148438 27.703125 -2.769531 C 25.351562 -1.390625 22.632812 -0.703125 19.539062 -0.703125 C 16.136719 -0.703125 13.160156 -1.492188 10.613281 -3.070312 C 8.066406 -4.648438 6.089844 -6.804688 4.679688 -9.546875 C 3.273438 -12.289062 2.570312 -15.402344 2.570312 -18.886719 Z M 11.554688 -19.09375 C 11.554688 -17.085938 11.960938 -15.285156 12.773438 -13.691406 C 13.585938 -12.101562 14.726562 -10.835938 16.195312 -9.902344 C 17.664062 -8.964844 19.382812 -8.5 21.351562 -8.5 C 23.382812 -8.5 25.148438 -8.949219 26.648438 -9.855469 C 28.148438 -10.757812 29.296875 -12.007812 30.101562 -13.597656 C 30.90625 -15.191406 31.308594 -17.03125 31.308594 -19.117188 C 31.308594 -21.199219 30.910156 -23.015625 30.113281 -24.558594 C 29.316406 -26.101562 28.175781 -27.316406 26.691406 -28.203125 C 25.207031 -29.089844 23.425781 -29.535156 21.34375 -29.535156 C 19.34375 -29.535156 17.613281 -29.078125 16.144531 -28.171875 C 14.675781 -27.261719 13.542969 -26.023438 12.75 -24.457031 C 11.953125 -22.890625 11.554688 -21.101562 11.554688 -19.09375 Z M 11.554688 -19.09375 "/></g></g></g></g><g fill="#39c6d0" fill-opacity="1"><g transform="translate(788.324353, 74.214963)"><g/></g></g><g fill="#39c6d0" fill-opacity="1"><g transform="translate(808.033247, 74.214963)"><g><path d="M 2.859375 -38.597656 C 2.859375 -41.738281 3.664062 -44.503906 5.277344 -46.894531 C 6.894531 -49.285156 9.132812 -51.15625 11.996094 -52.511719 C 14.863281 -53.863281 18.160156 -54.539062 21.886719 -54.539062 C 25.515625 -54.539062 28.660156 -53.902344 31.324219 -52.632812 C 33.988281 -51.359375 36.066406 -49.550781 37.554688 -47.207031 C 39.039062 -44.863281 39.835938 -42.074219 39.9375 -38.847656 L 30.582031 -38.847656 C 30.480469 -41.148438 29.648438 -42.945312 28.085938 -44.242188 C 26.527344 -45.539062 24.425781 -46.1875 21.78125 -46.1875 C 18.90625 -46.1875 16.59375 -45.535156 14.84375 -44.230469 C 13.09375 -42.925781 12.222656 -41.152344 12.222656 -38.90625 C 12.222656 -36.996094 12.753906 -35.488281 13.8125 -34.378906 C 14.875 -33.273438 16.523438 -32.46875 18.75 -31.960938 L 27.210938 -30.078125 C 31.769531 -29.097656 35.175781 -27.421875 37.433594 -25.039062 C 39.6875 -22.65625 40.816406 -19.464844 40.816406 -15.460938 C 40.816406 -12.167969 40.007812 -9.285156 38.382812 -6.808594 C 36.761719 -4.335938 34.480469 -2.425781 31.542969 -1.085938 C 28.601562 0.257812 25.15625 0.929688 21.210938 0.929688 C 17.441406 0.929688 14.128906 0.289062 11.277344 -0.988281 C 8.429688 -2.269531 6.210938 -4.085938 4.625 -6.441406 C 3.042969 -8.792969 2.207031 -11.554688 2.117188 -14.71875 L 11.496094 -14.71875 C 11.539062 -12.457031 12.425781 -10.679688 14.160156 -9.386719 C 15.890625 -8.089844 18.257812 -7.445312 21.261719 -7.445312 C 24.386719 -7.445312 26.867188 -8.089844 28.703125 -9.386719 C 30.535156 -10.679688 31.453125 -12.421875 31.453125 -14.617188 C 31.453125 -16.453125 30.960938 -17.914062 29.976562 -19 C 28.992188 -20.089844 27.40625 -20.867188 25.21875 -21.34375 L 16.71875 -23.203125 C 12.164062 -24.179688 8.714844 -25.960938 6.371094 -28.542969 C 4.027344 -31.121094 2.859375 -34.476562 2.859375 -38.597656 Z M 2.859375 -38.597656 "/></g></g></g><g fill="#39c6d0" fill-opacity="1"><g transform="translate(851.407541, 74.214963)"><g><path d="M 2.46875 -18.148438 C 2.46875 -21.917969 3.304688 -25.234375 4.972656 -28.097656 C 6.640625 -30.960938 8.9375 -33.195312 11.867188 -34.808594 C 14.792969 -36.421875 18.125 -37.226562 21.855469 -37.226562 C 25.601562 -37.226562 28.925781 -36.421875 31.832031 -34.808594 C 34.734375 -33.195312 37.019531 -30.960938 38.6875 -28.097656 C 40.355469 -25.234375 41.191406 -21.917969 41.191406 -18.148438 C 41.191406 -14.390625 40.355469 -11.085938 38.6875 -8.234375 C 37.019531 -5.382812 34.734375 -3.152344 31.832031 -1.539062 C 28.925781 0.0742188 25.601562 0.878906 21.855469 0.878906 C 18.125 0.878906 14.792969 0.0742188 11.867188 -1.539062 C 8.9375 -3.152344 6.640625 -5.382812 4.972656 -8.234375 C 3.304688 -11.085938 2.46875 -14.390625 2.46875 -18.148438 Z M 11.453125 -18.199219 C 11.453125 -16.007812 11.894531 -14.074219 12.785156 -12.402344 C 13.675781 -10.734375 14.894531 -9.433594 16.449219 -8.507812 C 18 -7.585938 19.804688 -7.121094 21.855469 -7.121094 C 23.90625 -7.121094 25.710938 -7.585938 27.261719 -8.507812 C 28.816406 -9.433594 30.027344 -10.734375 30.902344 -12.402344 C 31.773438 -14.074219 32.207031 -16.007812 32.207031 -18.199219 C 32.207031 -20.40625 31.773438 -22.332031 30.902344 -23.980469 C 30.027344 -25.625 28.816406 -26.914062 27.261719 -27.839844 C 25.710938 -28.765625 23.90625 -29.226562 21.855469 -29.226562 C 19.804688 -29.226562 18 -28.765625 16.449219 -27.839844 C 14.894531 -26.914062 13.675781 -25.625 12.785156 -23.980469 C 11.894531 -22.332031 11.453125 -20.40625 11.453125 -18.199219 Z M 11.453125 -18.199219 "/></g></g></g><g fill="#39c6d0" fill-opacity="1"><g transform="translate(895.074984, 74.214963)"><g><path d="M 2.46875 -18.148438 C 2.46875 -21.917969 3.304688 -25.234375 4.972656 -28.097656 C 6.640625 -30.960938 8.9375 -33.195312 11.867188 -34.808594 C 14.792969 -36.421875 18.125 -37.226562 21.855469 -37.226562 C 25.601562 -37.226562 28.925781 -36.421875 31.832031 -34.808594 C 34.734375 -33.195312 37.019531 -30.960938 38.6875 -28.097656 C 40.355469 -25.234375 41.191406 -21.917969 41.191406 -18.148438 C 41.191406 -14.390625 40.355469 -11.085938 38.6875 -8.234375 C 37.019531 -5.382812 34.734375 -3.152344 31.832031 -1.539062 C 28.925781 0.0742188 25.601562 0.878906 21.855469 0.878906 C 18.125 0.878906 14.792969 0.0742188 11.867188 -1.539062 C 8.9375 -3.152344 6.640625 -5.382812 4.972656 -8.234375 C 3.304688 -11.085938 2.46875 -14.390625 2.46875 -18.148438 Z M 11.453125 -18.199219 C 11.453125 -16.007812 11.894531 -14.074219 12.785156 -12.402344 C 13.675781 -10.734375 14.894531 -9.433594 16.449219 -8.507812 C 18 -7.585938 19.804688 -7.121094 21.855469 -7.121094 C 23.90625 -7.121094 25.710938 -7.585938 27.261719 -8.507812 C 28.816406 -9.433594 30.027344 -10.734375 30.902344 -12.402344 C 31.773438 -14.074219 32.207031 -16.007812 32.207031 -18.199219 C 32.207031 -20.40625 31.773438 -22.332031 30.902344 -23.980469 C 30.027344 -25.625 28.816406 -26.914062 27.261719 -27.839844 C 25.710938 -28.765625 23.90625 -29.226562 21.855469 -29.226562 C 19.804688 -29.226562 18 -28.765625 16.449219 -27.839844 C 14.894531 -26.914062 13.675781 -25.625 12.785156 -23.980469 C 11.894531 -22.332031 11.453125 -20.40625 11.453125 -18.199219 Z M 11.453125 -18.199219 "/></g></g></g><g fill="#39c6d0" fill-opacity="1"><g transform="translate(938.742346, 74.214963)"><g><path d="M 13.554688 0 L 4.644531 0 L 4.644531 -36.195312 L 12.894531 -36.195312 L 13.628906 -31.484375 C 14.765625 -33.308594 16.363281 -34.730469 18.421875 -35.75 C 20.480469 -36.769531 22.746094 -37.277344 25.210938 -37.277344 C 29.75 -37.277344 33.175781 -35.945312 35.488281 -33.273438 C 37.804688 -30.605469 38.964844 -26.9375 38.964844 -22.265625 L 38.964844 0 L 30.054688 0 L 30.054688 -20.171875 C 30.054688 -23.167969 29.363281 -25.421875 27.976562 -26.921875 C 26.59375 -28.425781 24.738281 -29.175781 22.417969 -29.175781 C 19.644531 -29.175781 17.472656 -28.296875 15.90625 -26.542969 C 14.339844 -24.792969 13.554688 -22.445312 13.554688 -19.503906 Z M 13.554688 0 "/></g></g></g></g></g></svg>